<svg width="19" height="15" viewBox="0 0 19 15" fill="none" xmlns="http://www.w3.org/2000/svg">
<path d="M18.49 6.44992C18.5059 6.26759 18.4837 6.08394 18.4249 5.91064C18.366 5.73735 18.2717 5.57819 18.1481 5.44327C18.0244 5.30834 17.8741 5.20059 17.7065 5.12689C17.539 5.05319 17.358 5.01514 17.175 5.01514C16.992 5.01514 16.811 5.05319 16.6434 5.12689C16.4759 5.20059 16.3255 5.30834 16.2018 5.44327C16.0782 5.57819 15.984 5.73735 15.9251 5.91064C15.8662 6.08394 15.8441 6.26759 15.86 6.44992V8.99991C15.86 9.13517 15.8063 9.26489 15.7106 9.36053C15.615 9.45618 15.4852 9.50992 15.35 9.50992H4.14996C4.08215 9.51125 4.01475 9.49903 3.95172 9.474C3.88868 9.44897 3.83131 9.41163 3.78289 9.36414C3.73447 9.31664 3.69599 9.25996 3.66973 9.19742C3.64348 9.13488 3.62999 9.06773 3.63 8.99991V6.44992C3.64591 6.26759 3.62373 6.08394 3.56487 5.91064C3.50602 5.73735 3.41174 5.57819 3.28808 5.44327C3.16442 5.30834 3.01408 5.20059 2.84655 5.12689C2.67903 5.05319 2.49802 5.01514 2.315 5.01514C2.13198 5.01514 1.95097 5.05319 1.78344 5.12689C1.61592 5.20059 1.46551 5.30834 1.34185 5.44327C1.21819 5.57819 1.12397 5.73735 1.06512 5.91064C1.00626 6.08394 0.984079 6.26759 0.999994 6.44992V12.1399H2.57V14.8199H3.57V12.1799H15.92V14.8199H16.92V12.1799H18.49V6.44992Z" fill="#7CFFFF"/>
<path d="M3.94006 4.35004C4.20528 4.35004 4.45962 4.45541 4.64716 4.64294C4.83469 4.83048 4.94006 5.08482 4.94006 5.35004V7.16003C4.94006 7.31453 4.97061 7.4675 5.03003 7.61011C5.08945 7.75271 5.17655 7.88213 5.28625 7.99091C5.39596 8.09968 5.52614 8.18566 5.66925 8.24387C5.81236 8.30207 5.96557 8.33137 6.12006 8.33005H13.3101C13.4645 8.33137 13.6178 8.30207 13.7609 8.24387C13.904 8.18566 14.0342 8.09968 14.1439 7.99091C14.2536 7.88213 14.3406 7.75271 14.4 7.61011C14.4594 7.4675 14.4901 7.31453 14.4901 7.16003V5.35004C14.4901 5.08482 14.5954 4.83048 14.783 4.64294C14.9705 4.45541 15.2248 4.35004 15.4901 4.35004C15.9648 4.35004 16.42 4.16143 16.7557 3.82574C17.0914 3.49005 17.28 3.03477 17.28 2.56003V1.82004C17.28 1.3453 17.0914 0.890011 16.7557 0.554321C16.42 0.218631 15.9648 0.0300293 15.4901 0.0300293H3.94006C3.46533 0.0300293 3.01001 0.218631 2.67432 0.554321C2.33863 0.890011 2.15002 1.3453 2.15002 1.82004V2.59003C2.15789 3.05955 2.34997 3.50717 2.68481 3.8364C3.01966 4.16562 3.47048 4.3501 3.94006 4.35004Z" fill="#7CFFFF"/>
</svg>
