<svg width="1211" height="431" viewBox="0 0 1211 431" fill="none" xmlns="http://www.w3.org/2000/svg">
<path d="M1171.1 0.277832C1196.6 68.8778 1210.5 143.078 1210.5 220.578C1210.5 293.978 1198 364.478 1175 429.978" stroke="#0098B6" stroke-miterlimit="10"/>
<path d="M1146 297.778V301.678L1148.9 302.678V303.878L1138.2 299.878V299.278L1148.9 295.278V296.578L1146 297.778ZM1144.9 301.278V298.178L1141.7 299.378L1140.1 299.778L1141.7 300.178L1144.9 301.278Z" fill="#0098B6"/>
<path d="M1139.5 287.878V292.678H1148.9V293.878H1138.4V286.578H1148.9V287.778H1139.5V287.878Z" fill="#0098B6"/>
<path d="M1139.5 277.378V280.678H1148.9V281.878H1139.5V285.178H1138.4V277.378H1139.5Z" fill="#0098B6"/>
<path d="M1138.4 275.778V270.078H1139.5V274.578H1142.9V270.478H1144V274.578H1147.7V270.078H1148.8V275.878H1138.4V275.778Z" fill="#0098B6"/>
<path d="M1144.1 265.778V266.478H1149V267.678H1138.5V266.478H1143.4L1143.2 265.778L1138.5 262.278V260.878L1143 264.378L1143.5 264.978L1144.1 264.178L1149 260.378V261.978L1144.1 265.778Z" fill="#0098B6"/>
<path d="M1146 253.578V257.478L1148.9 258.478V259.678L1138.2 255.678V255.078L1148.9 251.078V252.378L1146 253.578ZM1144.9 257.078V253.978L1141.7 255.178L1140.1 255.578L1141.7 255.978L1144.9 257.078Z" fill="#0098B6"/>
<path d="M1138.5 249.778C1138.4 249.378 1138.3 248.978 1138.3 248.578C1138.3 248.178 1138.3 247.678 1138.3 247.278C1138.3 246.778 1138.3 246.378 1138.4 245.878C1138.5 245.378 1138.7 244.978 1138.9 244.578C1139.1 244.178 1139.5 243.878 1139.9 243.578C1140.3 243.378 1140.9 243.178 1141.5 243.178C1142.1 243.178 1142.7 243.278 1143.1 243.478C1143.5 243.678 1143.9 243.978 1144.2 244.378C1144.5 244.778 1144.7 245.178 1144.8 245.678C1144.9 246.178 1145 246.678 1145 247.178C1145 247.178 1145 247.278 1145 247.378C1145 247.478 1145 247.578 1145 247.778C1145 247.978 1145 247.978 1145 248.178C1145 248.278 1145 248.378 1145 248.478H1149V249.678H1138.5V249.778ZM1139.4 247.278C1139.4 247.578 1139.4 247.778 1139.4 248.078C1139.4 248.278 1139.4 248.478 1139.5 248.678H1143.9C1143.9 248.578 1143.9 248.578 1143.9 248.478C1143.9 248.378 1143.9 248.278 1143.9 248.178C1143.9 248.078 1143.9 247.978 1143.9 247.878C1143.9 247.778 1143.9 247.678 1143.9 247.678C1143.9 247.378 1143.9 246.978 1143.8 246.678C1143.7 246.378 1143.6 246.078 1143.4 245.778C1143.2 245.478 1143 245.278 1142.7 245.078C1142.4 244.878 1142 244.878 1141.5 244.878C1141.1 244.878 1140.7 244.978 1140.5 245.078C1140.2 245.278 1140 245.478 1139.8 245.678C1139.6 245.978 1139.5 246.178 1139.4 246.578C1139.4 246.578 1139.4 246.978 1139.4 247.278Z" fill="#0098B6"/>
<path d="M1148.5 234.978C1148.7 235.278 1148.9 235.678 1149 236.078C1149.1 236.578 1149.1 237.078 1149.1 237.578C1149.1 238.178 1149 238.778 1148.8 239.378C1148.6 239.978 1148.3 240.378 1147.8 240.778C1147.4 241.178 1146.8 241.478 1146.1 241.778C1145.4 241.978 1144.6 242.178 1143.7 242.178C1142.7 242.178 1141.9 242.078 1141.2 241.778C1140.5 241.478 1140 241.178 1139.5 240.778C1139.1 240.378 1138.7 239.878 1138.5 239.278C1138.3 238.678 1138.2 238.178 1138.2 237.578C1138.2 236.978 1138.2 236.478 1138.3 236.078C1138.4 235.678 1138.5 235.378 1138.6 235.078L1139.7 235.378C1139.5 235.878 1139.3 236.578 1139.3 237.478C1139.3 237.878 1139.4 238.278 1139.5 238.678C1139.6 239.078 1139.9 239.478 1140.2 239.778C1140.5 240.078 1141 240.378 1141.5 240.578C1142.1 240.778 1142.7 240.878 1143.5 240.878C1144.2 240.878 1144.8 240.778 1145.4 240.578C1145.9 240.378 1146.4 240.178 1146.8 239.878C1147.2 239.578 1147.4 239.178 1147.6 238.778C1147.8 238.378 1147.9 237.878 1147.9 237.378C1147.9 236.878 1147.9 236.578 1147.8 236.178C1147.7 235.878 1147.6 235.578 1147.5 235.378L1148.5 234.978Z" fill="#0098B6"/>
<path d="M1144.1 231.178V231.878H1149V233.078H1138.5V231.878H1143.4L1143.2 231.178L1138.5 227.678V226.278L1143 229.778L1143.5 230.378L1144.1 229.578L1149 225.778V227.378L1144.1 231.178Z" fill="#0098B6"/>
<path d="M1146 218.978V222.878L1148.9 223.878V225.078L1138.2 221.078V220.478L1148.9 216.478V217.778L1146 218.978ZM1144.9 222.478V219.378L1141.7 220.578L1140.1 220.978L1141.7 221.378L1144.9 222.478Z" fill="#0098B6"/>
<path d="M1148.9 209.178V210.378H1144.3L1144.6 211.878L1148.8 214.478V215.978L1145.1 213.678L1144.5 212.778C1144.4 213.178 1144.3 213.478 1144.1 213.778C1143.9 214.078 1143.7 214.378 1143.5 214.578C1143.2 214.778 1142.9 214.978 1142.6 215.078C1142.3 215.178 1141.9 215.278 1141.4 215.278C1140.8 215.278 1140.3 215.178 1139.9 214.978C1139.5 214.778 1139.2 214.478 1138.9 214.178C1138.7 213.778 1138.5 213.378 1138.4 212.978C1138.3 212.478 1138.2 211.978 1138.2 211.478C1138.2 211.178 1138.2 210.778 1138.2 210.378C1138.2 209.978 1138.3 209.578 1138.4 209.278H1148.9V209.178ZM1139.4 211.478C1139.4 211.778 1139.4 212.078 1139.5 212.378C1139.6 212.678 1139.7 212.978 1139.8 213.178C1140 213.378 1140.2 213.578 1140.4 213.778C1140.7 213.878 1141 213.978 1141.4 213.978C1141.8 213.978 1142.1 213.878 1142.4 213.778C1142.7 213.678 1142.9 213.478 1143.1 213.278C1143.3 213.078 1143.4 212.778 1143.5 212.478C1143.6 212.178 1143.6 211.878 1143.6 211.478V210.478H1139.4C1139.4 210.578 1139.3 210.778 1139.3 210.878C1139.3 210.978 1139.4 211.278 1139.4 211.478Z" fill="#0098B6"/>
<path d="M1144.1 196.378V201.378H1148.9V202.578H1138.4V201.378H1143V196.378H1138.4V195.178H1148.9V196.378H1144.1Z" fill="#0098B6"/>
<path d="M1146 187.578V191.478L1148.9 192.478V193.678L1138.2 189.678V189.078L1148.9 185.078V186.378L1146 187.578ZM1144.9 191.078V187.978L1141.7 189.178L1140.1 189.578L1141.7 189.978L1144.9 191.078Z" fill="#0098B6"/>
<path d="M1138.4 183.778V178.078H1139.5V182.578H1142.6C1142.6 182.378 1142.5 182.178 1142.5 181.978C1142.5 181.778 1142.5 181.478 1142.5 181.278C1142.5 180.778 1142.5 180.278 1142.6 179.778C1142.7 179.278 1142.9 178.878 1143.1 178.578C1143.3 178.278 1143.6 177.978 1144 177.778C1144.4 177.578 1144.9 177.478 1145.5 177.478C1146.1 177.478 1146.6 177.578 1147.1 177.778C1147.5 177.978 1147.9 178.278 1148.2 178.578C1148.5 178.978 1148.7 179.378 1148.8 179.778C1148.9 180.278 1149 180.778 1149 181.278C1149 181.478 1149 181.678 1149 181.878C1149 182.078 1149 182.278 1149 182.578C1149 182.778 1149 183.078 1148.9 183.278C1148.9 183.478 1148.8 183.678 1148.8 183.878H1138.4V183.778ZM1148 181.078C1148 180.778 1148 180.478 1147.9 180.178C1147.8 179.878 1147.7 179.678 1147.5 179.378C1147.3 179.078 1147.1 178.978 1146.8 178.878C1146.5 178.778 1146.2 178.678 1145.9 178.678C1145.4 178.678 1145.1 178.778 1144.8 178.878C1144.5 178.978 1144.3 179.178 1144.1 179.478C1143.9 179.678 1143.8 179.978 1143.8 180.278C1143.7 180.578 1143.7 180.878 1143.7 181.278C1143.7 181.378 1143.7 181.478 1143.7 181.578C1143.7 181.678 1143.7 181.778 1143.7 181.978C1143.7 182.178 1143.7 182.178 1143.7 182.278C1143.7 182.378 1143.7 182.478 1143.7 182.478H1147.8C1147.8 182.378 1147.8 182.278 1147.8 182.178C1147.8 182.078 1147.8 181.978 1147.8 181.778C1147.8 181.678 1147.8 181.478 1147.8 181.378C1147.8 181.278 1148 181.178 1148 181.078Z" fill="#0098B6"/>
<path d="M1138.4 175.578V169.878H1139.5V174.378H1142.9V170.278H1144V174.378H1147.7V169.878H1148.8V175.678H1138.4V175.578Z" fill="#0098B6"/>
<path d="M1138.5 167.478C1138.4 167.078 1138.3 166.678 1138.3 166.278C1138.3 165.878 1138.3 165.378 1138.3 164.978C1138.3 164.478 1138.3 164.078 1138.4 163.578C1138.5 163.078 1138.7 162.678 1138.9 162.278C1139.1 161.878 1139.5 161.578 1139.9 161.278C1140.3 161.078 1140.9 160.878 1141.5 160.878C1142.1 160.878 1142.7 160.978 1143.1 161.178C1143.5 161.378 1143.9 161.678 1144.2 162.078C1144.5 162.478 1144.7 162.878 1144.8 163.378C1144.9 163.878 1145 164.378 1145 164.878C1145 164.878 1145 164.978 1145 165.078C1145 165.178 1145 165.278 1145 165.478C1145 165.678 1145 165.678 1145 165.878C1145 165.978 1145 166.078 1145 166.178H1149V167.378H1138.5V167.478ZM1139.4 164.978C1139.4 165.278 1139.4 165.478 1139.4 165.778C1139.4 165.978 1139.4 166.178 1139.5 166.378H1143.9C1143.9 166.278 1143.9 166.278 1143.9 166.178C1143.9 166.078 1143.9 165.978 1143.9 165.878C1143.9 165.778 1143.9 165.678 1143.9 165.578C1143.9 165.478 1143.9 165.378 1143.9 165.378C1143.9 165.078 1143.9 164.678 1143.8 164.378C1143.7 164.078 1143.6 163.778 1143.4 163.478C1143.2 163.178 1143 162.978 1142.7 162.778C1142.4 162.578 1142 162.578 1141.5 162.578C1141.1 162.578 1140.7 162.678 1140.5 162.778C1140.2 162.978 1140 163.178 1139.8 163.378C1139.6 163.678 1139.5 163.878 1139.4 164.278C1139.4 164.278 1139.4 164.678 1139.4 164.978Z" fill="#0098B6"/>
<path d="M1138.4 159.178V153.478H1139.5V157.978H1142.9V153.878H1144V157.978H1147.7V153.478H1148.8V159.278H1138.4V159.178Z" fill="#0098B6"/>
<path d="M1138.4 146.978V145.778H1143.3L1143.1 145.178L1138.4 142.178V140.778L1143 143.778L1143.5 144.378L1144.1 143.578L1148.9 140.278V141.778L1144 145.078V145.778H1148.9V146.978H1143.9L1144.1 147.578L1148.9 150.878V152.278L1144.2 148.978L1143.6 148.278L1143.1 148.978L1138.4 152.078V150.578L1143.1 147.578V146.878H1138.4V146.978Z" fill="#0098B6"/>
<path d="M1144.1 132.678V137.678H1148.9V138.878H1138.4V137.678H1143V132.678H1138.4V131.478H1148.9V132.678H1144.1Z" fill="#0098B6"/>
<path d="M1146 123.978V127.878L1148.9 128.878V130.078L1138.2 126.078V125.478L1148.9 121.478V122.778L1146 123.978ZM1144.9 127.378V124.278L1141.7 125.478L1140.1 125.878L1141.7 126.278L1144.9 127.378Z" fill="#0098B6"/>
<path d="M1148.9 114.178V115.378H1144.3L1144.6 116.878L1148.8 119.478V120.978L1145.1 118.678L1144.5 117.778C1144.4 118.178 1144.3 118.478 1144.1 118.778C1143.9 119.078 1143.7 119.378 1143.5 119.578C1143.2 119.778 1142.9 119.978 1142.6 120.078C1142.3 120.178 1141.9 120.278 1141.4 120.278C1140.8 120.278 1140.3 120.178 1139.9 119.978C1139.5 119.778 1139.2 119.478 1138.9 119.178C1138.7 118.778 1138.5 118.378 1138.4 117.978C1138.3 117.478 1138.2 116.978 1138.2 116.478C1138.2 116.178 1138.2 115.778 1138.2 115.378C1138.2 114.978 1138.3 114.578 1138.4 114.278H1148.9V114.178ZM1139.4 116.478C1139.4 116.778 1139.4 117.078 1139.5 117.378C1139.6 117.678 1139.7 117.978 1139.8 118.178C1140 118.378 1140.2 118.578 1140.4 118.778C1140.7 118.878 1141 118.978 1141.4 118.978C1141.8 118.978 1142.1 118.878 1142.4 118.778C1142.7 118.678 1142.9 118.478 1143.1 118.278C1143.3 118.078 1143.4 117.778 1143.5 117.478C1143.6 117.178 1143.6 116.878 1143.6 116.478V115.478H1139.4C1139.4 115.578 1139.3 115.778 1139.3 115.878C1139.3 115.978 1139.4 116.178 1139.4 116.478Z" fill="#0098B6"/>
<path d="M1099.5 166.078V0.777832H761" stroke="#0098B6" stroke-miterlimit="10"/>
<path d="M677 0.777832H0.5V429.778H1099.5V219.178" stroke="#0098B6" stroke-miterlimit="10"/>
<path d="M691.9 207.378L689.5 205.378V204.278C689.5 202.978 690.6 201.878 691.9 201.878C693.2 201.878 694.3 202.978 694.3 204.278V205.178V205.378L691.9 207.378Z" fill="#0098B6"/>
<path d="M1087.9 183.178L1078 193.078L1088 203.178H1099.4L1089.3 193.078L1099.4 183.078H1088L1087.9 183.178Z" fill="#0098B6"/>
<path d="M727.1 13.5779L737 23.4778L747 13.4778V2.17773L737 12.1777L727 2.17773V13.4778L727.1 13.5779Z" fill="#0098B6"/>
<path d="M644.6 200.678H635.4V203.778H644.6V200.678Z" fill="#0098B6" stroke="#0098B6" stroke-miterlimit="10"/>
<path d="M638.5 206.778H629.3V209.878H638.5V206.778Z" fill="#0098B6" stroke="#0098B6" stroke-miterlimit="10"/>
<path d="M638.5 200.678H635.4V209.878H638.5V200.678Z" fill="#0098B6" stroke="#0098B6" stroke-miterlimit="10"/>
<path d="M632.4 206.778H629.3V215.978H632.4V206.778Z" fill="#0098B6" stroke="#0098B6" stroke-miterlimit="10"/>
<path d="M632.3 212.878H623.1V215.978H632.3V212.878Z" fill="#0098B6" stroke="#0098B6" stroke-miterlimit="10"/>
<path d="M626.2 219.078H617V222.178H626.2V219.078Z" fill="#0098B6" stroke="#0098B6" stroke-miterlimit="10"/>
<path d="M626.3 212.878H623.2V222.078H626.3V212.878Z" fill="#0098B6" stroke="#0098B6" stroke-miterlimit="10"/>
<path d="M620.1 219.078H617V228.278H620.1V219.078Z" fill="#0098B6" stroke="#0098B6" stroke-miterlimit="10"/>
<path d="M620.1 225.178H610.9V228.278H620.1V225.178Z" fill="#0098B6" stroke="#0098B6" stroke-miterlimit="10"/>
<path d="M715 0.277832H691V24.2778H715V0.277832Z" fill="#0098B6"/>
<path d="M699.598 6.55317C700.041 6.44821 700.52 6.37824 701.033 6.34325C701.546 6.30826 702.053 6.29077 702.555 6.29077C703.091 6.29077 703.633 6.34325 704.182 6.44821C704.741 6.55317 705.249 6.74559 705.703 7.02549C706.158 7.30538 706.526 7.69023 706.805 8.18005C707.097 8.66986 707.243 9.29379 707.243 10.0518C707.243 10.7982 707.109 11.428 706.84 11.9411C706.572 12.4542 706.217 12.8741 705.773 13.2006C705.33 13.5155 704.823 13.7429 704.251 13.8829C703.68 14.0228 703.091 14.0928 702.485 14.0928C702.426 14.0928 702.327 14.0928 702.187 14.0928C702.059 14.0928 701.919 14.0928 701.767 14.0928C701.627 14.0811 701.488 14.0695 701.348 14.0578C701.208 14.0461 701.109 14.0345 701.05 14.0228V18.676H699.598V6.55317ZM702.59 7.55029C702.286 7.55029 701.995 7.55612 701.715 7.56778C701.435 7.57944 701.213 7.6086 701.05 7.65525V12.7283C701.109 12.7516 701.202 12.7691 701.33 12.7808C701.458 12.7808 701.592 12.7866 701.732 12.7983C701.872 12.7983 702.007 12.7983 702.135 12.7983C702.263 12.7983 702.356 12.7983 702.415 12.7983C702.811 12.7983 703.202 12.7633 703.587 12.6933C703.983 12.6117 704.339 12.4717 704.654 12.2735C704.969 12.0752 705.219 11.7953 705.406 11.4338C705.604 11.0723 705.703 10.6116 705.703 10.0518C705.703 9.57368 705.61 9.17716 705.424 8.86228C705.249 8.53574 705.01 8.27917 704.706 8.09258C704.415 7.89432 704.082 7.75437 703.709 7.67274C703.336 7.5911 702.963 7.55029 702.59 7.55029Z" fill="#1E1E1E"/>
<path fill-rule="evenodd" clip-rule="evenodd" d="M690.4 211.378L695.2 207.278L698.1 209.678L696.306 211.216L694.3 209.678V212.935L690.4 216.278V211.378Z" fill="#0098B6"/>
<path d="M700.7 208.978L699.1 210.378H699L698.6 210.778L691.4 216.978L688.8 219.178H684.4L678.5 224.278H691.8L703.6 214.078H708.1L714 208.978H700.7Z" fill="#0098B6"/>
<path d="M506 16.2778H16V414.278H506V16.2778Z" stroke="#0098B6" stroke-miterlimit="10"/>
<path d="M610 16.2778H554V83.2778H610V16.2778Z" stroke="#0098B6" stroke-miterlimit="10"/>
<path d="M610 89.2778H554V127.278H610V89.2778Z" stroke="#0098B6" stroke-miterlimit="10"/>
<path d="M809 89.2778H761V127.278H809V89.2778Z" stroke="#0098B6" stroke-miterlimit="10"/>
<path d="M978 76.2778H913V127.278H978V76.2778Z" stroke="#0098B6" stroke-miterlimit="10"/>
<path fill-rule="evenodd" clip-rule="evenodd" d="M913 16.2778V70.2778H984.1V127.278H1084V16.2778H913Z" stroke="#0098B6" stroke-miterlimit="10"/>
<path d="M1084 133.278H984.1V166.478H1084V133.278Z" stroke="#0098B6" stroke-miterlimit="10"/>
<path d="M907 56.2778H861V127.278H907V56.2778Z" stroke="#0098B6" stroke-miterlimit="10"/>
<path d="M907 16.2778H761V50.2778H907V16.2778Z" stroke="#0098B6" stroke-miterlimit="10"/>
<path d="M767.5 147.278H743V160.878H767.5V147.278Z" stroke="#0098B6" stroke-miterlimit="10"/>
<path d="M758 230.878H733.5V252.378H758V230.878Z" stroke="#0098B6" stroke-miterlimit="10"/>
<path d="M758 259.978H733.5V280.278H758V259.978Z" stroke="#0098B6" stroke-miterlimit="10"/>
<path fill-rule="evenodd" clip-rule="evenodd" d="M728.9 147.278H713.6H661.4H644V187.278H662.9V241.578H644V280.278H713.6V231.478H675.2V194.678H713.6V160.878H728.9V147.278Z" stroke="#0098B6" stroke-miterlimit="10"/>
<path d="M666.8 300.278H627.8V414.278H666.8V300.278Z" stroke="#0098B6" stroke-miterlimit="10"/>
<path d="M711.8 300.278H672.8V414.278H711.8V300.278Z" stroke="#0098B6" stroke-miterlimit="10"/>
<path d="M756.8 300.278H717.8V414.278H756.8V300.278Z" stroke="#0098B6" stroke-miterlimit="10"/>
<path d="M818 300.278H762.8V414.278H818V300.278Z" stroke="#0098B6" stroke-miterlimit="10"/>
<path d="M890 300.278H824V414.278H890V300.278Z" stroke="#0098B6" stroke-miterlimit="10"/>
<path d="M1084 300.278H910V414.278H1084V300.278Z" stroke="#0098B6" stroke-miterlimit="10"/>
<path d="M1084 220.178H983.5V288.278H1084V220.178Z" stroke="#0098B6" stroke-miterlimit="10"/>
<path fill-rule="evenodd" clip-rule="evenodd" d="M554 300.278V330.878H519V414.278H555.9H585H621.8V300.278H554Z" stroke="#0098B6" stroke-miterlimit="10"/>
<path d="M593 147.278H554V187.278H593V147.278Z" stroke="#0098B6" stroke-miterlimit="10"/>
<path d="M638 147.278H599V187.278H638V147.278Z" stroke="#0098B6" stroke-miterlimit="10"/>
<path d="M638 240.278H599V280.278H638V240.278Z" stroke="#0098B6" stroke-miterlimit="10"/>
<path d="M593 193.778H554V233.778H593V193.778Z" stroke="#0098B6" stroke-miterlimit="10"/>
<path d="M593 240.278H554V280.278H593V240.278Z" stroke="#0098B6" stroke-miterlimit="10"/>
<path fill-rule="evenodd" clip-rule="evenodd" d="M658 89.4778V59.1777L616 59.0779V127.278H714.7V89.2778L658 89.4778Z" stroke="#0098B6" stroke-miterlimit="10"/>
<path fill-rule="evenodd" clip-rule="evenodd" d="M664 83.3779L714.7 83.2778V30.2778L664 30.3779V83.3779Z" stroke="#0098B6" stroke-miterlimit="10"/>
<path fill-rule="evenodd" clip-rule="evenodd" d="M761 56.2778V83.2778H812.2L845 56.2778H761Z" stroke="#0098B6" stroke-miterlimit="10"/>
<path fill-rule="evenodd" clip-rule="evenodd" d="M855 127.278H815.5L815 89.2778L855 56.2778V127.278Z" stroke="#0098B6" stroke-miterlimit="10"/>
<path fill-rule="evenodd" clip-rule="evenodd" d="M793.2 217.378C792.7 232.478 789 246.678 782.5 259.278V280.278H904V217.378H793.2Z" stroke="#0098B6" stroke-miterlimit="10"/>
<path fill-rule="evenodd" clip-rule="evenodd" d="M782.6 147.078V169.578C788.8 181.778 792.6 195.478 793.2 211.378H910V280.278H951.3V147.078H782.6V147.078Z" stroke="#0098B6" stroke-miterlimit="10"/>
<path d="M541 16.2778H519V36.8779H541V16.2778Z" stroke="#0098B6" stroke-miterlimit="10"/>
<path d="M541 147.178H519V169.778H541V147.178Z" stroke="#0098B6" stroke-miterlimit="10"/>
<path d="M506 16.2778H16V414.278H506V16.2778Z" stroke="#7CFFFF" stroke-miterlimit="10"/>
<path d="M610 16.2778H554V83.2778H610V16.2778Z" stroke="#7CFFFF" stroke-miterlimit="10"/>
<path d="M610 89.2778H554V127.278H610V89.2778Z" stroke="#7CFFFF" stroke-miterlimit="10"/>
<path d="M809 89.2778H761V127.278H809V89.2778Z" stroke="#7CFFFF" stroke-miterlimit="10"/>
<path fill-rule="evenodd" clip-rule="evenodd" d="M913 16.2778V70.2778H984.1V127.278H1084V16.2778H913Z" stroke="#7CFFFF" stroke-miterlimit="10"/>
<path d="M1084 133.278H984.1V166.478H1084V133.278Z" stroke="#7CFFFF" stroke-miterlimit="10"/>
<path d="M907 56.2778H861V127.278H907V56.2778Z" stroke="#7CFFFF" stroke-miterlimit="10"/>
<path d="M907 16.2778H761V50.2778H907V16.2778Z" stroke="#7CFFFF" stroke-miterlimit="10"/>
<path d="M593 147.278H554V187.278H593V147.278Z" stroke="#7CFFFF" stroke-miterlimit="10"/>
<path d="M638 147.278H599V187.278H638V147.278Z" stroke="#7CFFFF" stroke-miterlimit="10"/>
<path d="M767.5 147.278H743V160.878H767.5V147.278Z" stroke="#7CFFFF" stroke-miterlimit="10"/>
<path d="M638 240.278H599V280.278H638V240.278Z" stroke="#7CFFFF" stroke-miterlimit="10"/>
<path d="M666.8 300.278H627.8V414.278H666.8V300.278Z" stroke="#7CFFFF" stroke-miterlimit="10"/>
<path d="M711.8 300.278H672.8V414.278H711.8V300.278Z" stroke="#7CFFFF" stroke-miterlimit="10"/>
<path d="M818 300.278H762.8V414.278H818V300.278Z" stroke="#7CFFFF" stroke-miterlimit="10"/>
<path d="M890 300.278H824V414.278H890V300.278Z" stroke="#7CFFFF" stroke-miterlimit="10"/>
<path fill-rule="evenodd" clip-rule="evenodd" d="M554 300.278V330.878H519V414.278H555.9H585H621.8V300.278H554Z" stroke="#7CFFFF" stroke-miterlimit="10"/>
<path d="M593 193.778H554V233.778H593V193.778Z" stroke="#7CFFFF" stroke-miterlimit="10"/>
<path d="M593 240.278H554V280.278H593V240.278Z" stroke="#7CFFFF" stroke-miterlimit="10"/>
<path fill-rule="evenodd" clip-rule="evenodd" d="M658 89.4778V59.1777L616 59.0779V127.278H714.7V89.2778L658 89.4778Z" stroke="#7CFFFF" stroke-miterlimit="10"/>
<path fill-rule="evenodd" clip-rule="evenodd" d="M664 83.3779L714.7 83.2778V30.2778L664 30.3779V83.3779Z" stroke="#7CFFFF" stroke-miterlimit="10"/>
<path fill-rule="evenodd" clip-rule="evenodd" d="M761 56.2778V83.2778H812.2L845 56.2778H761Z" stroke="#7CFFFF" stroke-miterlimit="10"/>
<path fill-rule="evenodd" clip-rule="evenodd" d="M855 127.278H815.5L815 89.2778L855 56.2778V127.278Z" stroke="#7CFFFF" stroke-miterlimit="10"/>
<path fill-rule="evenodd" clip-rule="evenodd" d="M793.2 217.378C792.7 232.478 789 246.678 782.5 259.278V280.278H904V217.378H793.2Z" stroke="#7CFFFF" stroke-miterlimit="10"/>
<path fill-rule="evenodd" clip-rule="evenodd" d="M782.6 147.078V169.578C788.8 181.778 792.6 195.478 793.2 211.378H910V280.278H951.3V147.078H782.6V147.078Z" stroke="#7CFFFF" stroke-miterlimit="10"/>
<path d="M758 230.878H733.5V252.378H758V230.878Z" stroke="#7CFFFF" stroke-miterlimit="10"/>
<path d="M758 259.978H733.5V280.278H758V259.978Z" stroke="#7CFFFF" stroke-miterlimit="10"/>
<path d="M748.95 238.63V237.16C748.904 236.351 748.551 235.591 747.963 235.034C747.374 234.478 746.595 234.168 745.785 234.168C744.975 234.168 744.196 234.478 743.607 235.034C743.019 235.591 742.665 236.351 742.62 237.16V238.66L745.8 241.36L748.95 238.63Z" fill="#7CFFFF"/>
<path d="M752.51 247.75L751.42 241.64H748.91L745.78 244.34L742.62 241.64H740.14L739.06 247.74H737V248.67H754.51V247.74L752.51 247.75ZM741.34 247.75L742 244.03L743.66 247.75H741.34ZM748.14 247.75L749.58 243.97L750.26 247.75H748.14Z" fill="#7CFFFF"/>
<path d="M848.49 246.45C848.506 246.268 848.484 246.084 848.425 245.911C848.366 245.737 848.272 245.578 848.148 245.443C848.024 245.308 847.874 245.201 847.707 245.127C847.539 245.053 847.358 245.015 847.175 245.015C846.992 245.015 846.811 245.053 846.643 245.127C846.476 245.201 846.325 245.308 846.202 245.443C846.078 245.578 845.984 245.737 845.925 245.911C845.866 246.084 845.844 246.268 845.86 246.45V249C845.86 249.135 845.806 249.265 845.711 249.361C845.615 249.456 845.485 249.51 845.35 249.51H834.15C834.082 249.511 834.015 249.499 833.952 249.474C833.889 249.449 833.831 249.412 833.783 249.364C833.734 249.317 833.696 249.26 833.67 249.197C833.643 249.135 833.63 249.068 833.63 249V246.45C833.646 246.268 833.624 246.084 833.565 245.911C833.506 245.737 833.412 245.578 833.288 245.443C833.164 245.308 833.014 245.201 832.847 245.127C832.679 245.053 832.498 245.015 832.315 245.015C832.132 245.015 831.951 245.053 831.783 245.127C831.616 245.201 831.466 245.308 831.342 245.443C831.218 245.578 831.124 245.737 831.065 245.911C831.006 246.084 830.984 246.268 831 246.45V252.14H832.57V254.82H833.57V252.18H845.92V254.82H846.92V252.18H848.49V246.45Z" fill="#7CFFFF"/>
<path d="M833.94 244.35C834.205 244.35 834.46 244.455 834.647 244.643C834.835 244.83 834.94 245.085 834.94 245.35V247.16C834.94 247.315 834.971 247.468 835.03 247.61C835.089 247.753 835.177 247.882 835.286 247.991C835.396 248.1 835.526 248.186 835.669 248.244C835.812 248.302 835.966 248.331 836.12 248.33H843.31C843.465 248.331 843.618 248.302 843.761 248.244C843.904 248.186 844.034 248.1 844.144 247.991C844.254 247.882 844.341 247.753 844.4 247.61C844.459 247.468 844.49 247.315 844.49 247.16V245.35C844.49 245.085 844.595 244.83 844.783 244.643C844.97 244.455 845.225 244.35 845.49 244.35C845.965 244.35 846.42 244.161 846.756 243.826C847.091 243.49 847.28 243.035 847.28 242.56V241.82C847.28 241.345 847.091 240.89 846.756 240.554C846.42 240.219 845.965 240.03 845.49 240.03H833.94C833.465 240.03 833.01 240.219 832.674 240.554C832.339 240.89 832.15 241.345 832.15 241.82V242.59C832.158 243.06 832.35 243.507 832.685 243.836C833.02 244.166 833.47 244.35 833.94 244.35Z" fill="#7CFFFF"/>
<path d="M748.95 267.462V265.992C748.904 265.183 748.551 264.423 747.963 263.866C747.374 263.31 746.595 263 745.785 263C744.975 263 744.196 263.31 743.607 263.866C743.019 264.423 742.665 265.183 742.62 265.992V267.492L745.8 270.192L748.95 267.462Z" fill="#7CFFFF"/>
<path d="M752.51 276.582L751.42 270.472H748.91L745.78 273.172L742.62 270.472H740.14L739.06 276.572H737V277.502H754.51V276.572L752.51 276.582ZM741.34 276.582L742 272.862L743.66 276.582H741.34ZM748.14 276.582L749.58 272.802L750.26 276.582H748.14Z" fill="#7CFFFF"/>
<path d="M875.49 180.45C875.506 180.268 875.484 180.084 875.425 179.911C875.366 179.737 875.272 179.578 875.148 179.443C875.024 179.308 874.874 179.201 874.707 179.127C874.539 179.053 874.358 179.015 874.175 179.015C873.992 179.015 873.811 179.053 873.643 179.127C873.476 179.201 873.325 179.308 873.202 179.443C873.078 179.578 872.984 179.737 872.925 179.911C872.866 180.084 872.844 180.268 872.86 180.45V183C872.86 183.135 872.806 183.265 872.711 183.361C872.615 183.456 872.485 183.51 872.35 183.51H861.15C861.082 183.511 861.015 183.499 860.952 183.474C860.889 183.449 860.831 183.412 860.783 183.364C860.734 183.317 860.696 183.26 860.67 183.197C860.643 183.135 860.63 183.068 860.63 183V180.45C860.646 180.268 860.624 180.084 860.565 179.911C860.506 179.737 860.412 179.578 860.288 179.443C860.164 179.308 860.014 179.201 859.847 179.127C859.679 179.053 859.498 179.015 859.315 179.015C859.132 179.015 858.951 179.053 858.783 179.127C858.616 179.201 858.466 179.308 858.342 179.443C858.218 179.578 858.124 179.737 858.065 179.911C858.006 180.084 857.984 180.268 858 180.45V186.14H859.57V188.82H860.57V186.18H872.92V188.82H873.92V186.18H875.49V180.45Z" fill="#7CFFFF"/>
<path d="M860.94 178.35C861.205 178.35 861.46 178.455 861.647 178.643C861.835 178.83 861.94 179.085 861.94 179.35V181.16C861.94 181.315 861.971 181.468 862.03 181.61C862.089 181.753 862.177 181.882 862.286 181.991C862.396 182.1 862.526 182.186 862.669 182.244C862.812 182.302 862.966 182.331 863.12 182.33H870.31C870.465 182.331 870.618 182.302 870.761 182.244C870.904 182.186 871.034 182.1 871.144 181.991C871.254 181.882 871.341 181.753 871.4 181.61C871.459 181.468 871.49 181.315 871.49 181.16V179.35C871.49 179.085 871.595 178.83 871.783 178.643C871.97 178.455 872.225 178.35 872.49 178.35C872.965 178.35 873.42 178.161 873.756 177.826C874.091 177.49 874.28 177.035 874.28 176.56V175.82C874.28 175.345 874.091 174.89 873.756 174.554C873.42 174.219 872.965 174.03 872.49 174.03H860.94C860.465 174.03 860.01 174.219 859.674 174.554C859.339 174.89 859.15 175.345 859.15 175.82V176.59C859.158 177.06 859.35 177.507 859.685 177.836C860.02 178.166 860.47 178.35 860.94 178.35Z" fill="#7CFFFF"/>
<path d="M1017.96 75.27H1026.45L1029.77 71.95H1017.96V75.27Z" fill="#7CFFFF"/>
<path d="M1030.48 65.93H1017.96V65H1013V65.93H1017.96V70.95H1030.48V65.93Z" fill="#7CFFFF"/>
<path d="M1026.2 77.4301C1025.98 77.2152 1025.7 77.0819 1025.4 77.0529C1025.09 77.0238 1024.79 77.1009 1024.53 77.2709C1024.28 77.4409 1024.09 77.6934 1024.01 77.9854C1023.92 78.2774 1023.93 78.591 1024.05 78.8727C1024.17 79.1545 1024.38 79.3871 1024.65 79.5309C1024.92 79.6747 1025.23 79.721 1025.53 79.6618C1025.83 79.6025 1026.09 79.4415 1026.29 79.206C1026.48 78.9705 1026.59 78.6751 1026.59 78.3701C1026.59 78.1954 1026.56 78.0224 1026.49 77.861C1026.42 77.6996 1026.32 77.5532 1026.2 77.4301Z" fill="#7CFFFF"/>
<path d="M1019.13 77.0401C1018.96 77.0387 1018.78 77.0723 1018.62 77.1388C1018.46 77.2053 1018.31 77.3033 1018.19 77.4272C1018.07 77.5511 1017.97 77.6984 1017.9 77.8603C1017.84 78.0222 1017.81 78.1955 1017.81 78.3701C1017.81 78.5425 1017.84 78.7134 1017.91 78.873C1017.97 79.0326 1018.07 79.1777 1018.19 79.3001C1018.34 79.4518 1018.53 79.5634 1018.74 79.6251C1018.95 79.6868 1019.17 79.6967 1019.38 79.6539C1019.59 79.6111 1019.79 79.517 1019.95 79.3798C1020.12 79.2426 1020.25 79.0665 1020.34 78.8669C1020.42 78.6674 1020.45 78.4505 1020.43 78.2354C1020.41 78.0202 1020.34 77.8134 1020.22 77.633C1020.1 77.4527 1019.94 77.3042 1019.75 77.2008C1019.56 77.0975 1019.35 77.0423 1019.13 77.0401Z" fill="#7CFFFF"/>
<path d="M788.06 355.56L787.7 347H786.7C786.7 349.19 786.7 355 786.59 355.78C786.52 356.26 786.36 356.84 785.99 356.84C785.62 356.84 785.6 356.35 785.57 355.95C785.5 355.04 785.04 347.05 785.03 346.95H784.03C784.03 346.95 783.58 354.95 783.51 355.95C783.51 356.28 783.39 356.82 782.98 356.82C782.78 356.82 782.47 356.52 782.41 355.96C782.35 355.4 782.29 349.28 782.27 346.96H781.27L781 355.53C781.002 356.294 781.253 357.036 781.715 357.644C782.177 358.252 782.825 358.693 783.56 358.9V361.68H785.44V358.92C786.183 358.722 786.841 358.286 787.314 357.68C787.787 357.073 788.049 356.329 788.06 355.56Z" fill="#7CFFFF"/>
<path d="M798.45 355.73C798.4 354.86 797.93 347.2 794.56 347.2C791.19 347.2 790.71 354.86 790.67 355.76C790.679 356.596 790.957 357.406 791.463 358.071C791.969 358.736 792.677 359.22 793.48 359.45V361.74H795.38V359.54C796.251 359.352 797.03 358.872 797.589 358.178C798.148 357.485 798.452 356.62 798.45 355.73Z" fill="#7CFFFF"/>
<path d="M853.06 355.56L852.7 347H851.7C851.7 349.19 851.7 355 851.59 355.78C851.52 356.26 851.36 356.84 850.99 356.84C850.62 356.84 850.6 356.35 850.57 355.95C850.5 355.04 850.04 347.05 850.03 346.95H849.03C849.03 346.95 848.58 354.95 848.51 355.95C848.51 356.28 848.39 356.82 847.98 356.82C847.78 356.82 847.47 356.52 847.41 355.96C847.35 355.4 847.29 349.28 847.27 346.96H846.27L846 355.53C846.002 356.294 846.253 357.036 846.715 357.644C847.177 358.252 847.825 358.693 848.56 358.9V361.68H850.44V358.92C851.183 358.722 851.841 358.286 852.314 357.68C852.787 357.073 853.049 356.329 853.06 355.56Z" fill="#7CFFFF"/>
<path d="M863.45 355.73C863.4 354.86 862.93 347.2 859.56 347.2C856.19 347.2 855.71 354.86 855.67 355.76C855.679 356.596 855.957 357.406 856.463 358.071C856.969 358.736 857.677 359.22 858.48 359.45V361.74H860.38V359.54C861.251 359.352 862.03 358.872 862.589 358.178C863.148 357.485 863.452 356.62 863.45 355.73Z" fill="#7CFFFF"/>
<path d="M645.06 355.56L644.7 347H643.7C643.7 349.19 643.7 355 643.59 355.78C643.52 356.26 643.36 356.84 642.99 356.84C642.62 356.84 642.6 356.35 642.57 355.95C642.5 355.04 642.04 347.05 642.03 346.95H641.03C641.03 346.95 640.58 354.95 640.51 355.95C640.51 356.28 640.39 356.82 639.98 356.82C639.78 356.82 639.47 356.52 639.41 355.96C639.35 355.4 639.29 349.28 639.27 346.96H638.27L638 355.53C638.002 356.294 638.253 357.036 638.715 357.644C639.177 358.252 639.825 358.693 640.56 358.9V361.68H642.44V358.92C643.183 358.722 643.841 358.286 644.314 357.68C644.787 357.073 645.049 356.329 645.06 355.56Z" fill="#7CFFFF"/>
<path d="M655.45 355.73C655.4 354.86 654.93 347.2 651.56 347.2C648.19 347.2 647.71 354.86 647.67 355.76C647.679 356.596 647.957 357.406 648.463 358.071C648.969 358.736 649.677 359.22 650.48 359.45V361.74H652.38V359.54C653.251 359.352 654.03 358.872 654.589 358.178C655.148 357.485 655.452 356.62 655.45 355.73Z" fill="#7CFFFF"/>
<path d="M690.06 355.56L689.7 347H688.7C688.7 349.19 688.7 355 688.59 355.78C688.52 356.26 688.36 356.84 687.99 356.84C687.62 356.84 687.6 356.35 687.57 355.95C687.5 355.04 687.04 347.05 687.03 346.95H686.03C686.03 346.95 685.58 354.95 685.51 355.95C685.51 356.28 685.39 356.82 684.98 356.82C684.78 356.82 684.47 356.52 684.41 355.96C684.35 355.4 684.29 349.28 684.27 346.96H683.27L683 355.53C683.002 356.294 683.253 357.036 683.715 357.644C684.177 358.252 684.825 358.693 685.56 358.9V361.68H687.44V358.92C688.183 358.722 688.841 358.286 689.314 357.68C689.787 357.073 690.049 356.329 690.06 355.56Z" fill="#7CFFFF"/>
<path d="M700.45 355.73C700.4 354.86 699.93 347.2 696.56 347.2C693.19 347.2 692.71 354.86 692.67 355.76C692.679 356.596 692.957 357.406 693.463 358.071C693.969 358.736 694.677 359.22 695.48 359.45V361.74H697.38V359.54C698.251 359.352 699.03 358.872 699.589 358.178C700.148 357.485 700.452 356.62 700.45 355.73Z" fill="#7CFFFF"/>
<path d="M571.06 355.56L570.7 347H569.7C569.7 349.19 569.7 355 569.59 355.78C569.52 356.26 569.36 356.84 568.99 356.84C568.62 356.84 568.6 356.35 568.57 355.95C568.5 355.04 568.04 347.05 568.03 346.95H567.03C567.03 346.95 566.58 354.95 566.51 355.95C566.51 356.28 566.39 356.82 565.98 356.82C565.78 356.82 565.47 356.52 565.41 355.96C565.35 355.4 565.29 349.28 565.27 346.96H564.27L564 355.53C564.002 356.294 564.253 357.036 564.715 357.644C565.177 358.252 565.825 358.693 566.56 358.9V361.68H568.44V358.92C569.183 358.722 569.841 358.286 570.314 357.68C570.787 357.073 571.049 356.329 571.06 355.56Z" fill="#7CFFFF"/>
<path d="M581.45 355.73C581.4 354.86 580.93 347.2 577.56 347.2C574.19 347.2 573.71 354.86 573.67 355.76C573.679 356.596 573.957 357.406 574.463 358.071C574.969 358.736 575.677 359.22 576.48 359.45V361.74H578.38V359.54C579.251 359.352 580.03 358.872 580.589 358.178C581.148 357.485 581.452 356.62 581.45 355.73Z" fill="#7CFFFF"/>
<path d="M620.95 165.462V163.992C620.904 163.183 620.551 162.423 619.963 161.866C619.374 161.31 618.595 161 617.785 161C616.975 161 616.196 161.31 615.607 161.866C615.019 162.423 614.665 163.183 614.62 163.992V165.492L617.8 168.192L620.95 165.462Z" fill="#7CFFFF"/>
<path d="M624.51 174.582L623.42 168.472H620.91L617.78 171.172L614.62 168.472H612.14L611.06 174.572H609V175.502H626.51V174.572L624.51 174.582ZM613.34 174.582L614 170.862L615.66 174.582H613.34ZM620.14 174.582L621.58 170.802L622.26 174.582H620.14Z" fill="#7CFFFF"/>
<path d="M575.95 213.462V211.992C575.904 211.183 575.551 210.423 574.963 209.866C574.374 209.31 573.595 209 572.785 209C571.975 209 571.196 209.31 570.607 209.866C570.019 210.423 569.665 211.183 569.62 211.992V213.492L572.8 216.192L575.95 213.462Z" fill="#7CFFFF"/>
<path d="M579.51 222.582L578.42 216.472H575.91L572.78 219.172L569.62 216.472H567.14L566.06 222.572H564V223.502H581.51V222.572L579.51 222.582ZM568.34 222.582L569 218.862L570.66 222.582H568.34ZM575.14 222.582L576.58 218.802L577.26 222.582H575.14Z" fill="#7CFFFF"/>
<path d="M575.95 165.462V163.992C575.904 163.183 575.551 162.423 574.963 161.866C574.374 161.31 573.595 161 572.785 161C571.975 161 571.196 161.31 570.607 161.866C570.019 162.423 569.665 163.183 569.62 163.992V165.492L572.8 168.192L575.95 165.462Z" fill="#7CFFFF"/>
<path d="M579.51 174.582L578.42 168.472H575.91L572.78 171.172L569.62 168.472H567.14L566.06 174.572H564V175.502H581.51V174.572L579.51 174.582ZM568.34 174.582L569 170.862L570.66 174.582H568.34ZM575.14 174.582L576.58 170.802L577.26 174.582H575.14Z" fill="#7CFFFF"/>
<path d="M575.95 256.462V254.992C575.904 254.183 575.551 253.423 574.963 252.866C574.374 252.31 573.595 252 572.785 252C571.975 252 571.196 252.31 570.607 252.866C570.019 253.423 569.665 254.183 569.62 254.992V256.492L572.8 259.192L575.95 256.462Z" fill="#7CFFFF"/>
<path d="M579.51 265.582L578.42 259.472H575.91L572.78 262.172L569.62 259.472H567.14L566.06 265.572H564V266.502H581.51V265.572L579.51 265.582ZM568.34 265.582L569 261.862L570.66 265.582H568.34ZM575.14 265.582L576.58 261.802L577.26 265.582H575.14Z" fill="#7CFFFF"/>
<path d="M621.95 256.462V254.992C621.904 254.183 621.551 253.423 620.963 252.866C620.374 252.31 619.595 252 618.785 252C617.975 252 617.196 252.31 616.607 252.866C616.019 253.423 615.665 254.183 615.62 254.992V256.492L618.8 259.192L621.95 256.462Z" fill="#7CFFFF"/>
<path d="M625.51 265.582L624.42 259.472H621.91L618.78 262.172L615.62 259.472H613.14L612.06 265.572H610V266.502H627.51V265.572L625.51 265.582ZM614.34 265.582L615 261.862L616.66 265.582H614.34ZM621.14 265.582L622.58 261.802L623.26 265.582H621.14Z" fill="#7CFFFF"/>
<path d="M1024.96 153.27H1033.45L1036.77 149.95H1024.96V153.27Z" fill="#7CFFFF"/>
<path d="M1037.48 143.93H1024.96V143H1020V143.93H1024.96V148.95H1037.48V143.93Z" fill="#7CFFFF"/>
<path d="M1033.2 155.43C1032.98 155.215 1032.7 155.082 1032.4 155.053C1032.09 155.024 1031.79 155.101 1031.53 155.271C1031.28 155.441 1031.09 155.693 1031.01 155.985C1030.92 156.277 1030.93 156.591 1031.05 156.873C1031.17 157.154 1031.38 157.387 1031.65 157.531C1031.92 157.675 1032.23 157.721 1032.53 157.662C1032.83 157.603 1033.09 157.441 1033.29 157.206C1033.48 156.971 1033.59 156.675 1033.59 156.37C1033.59 156.195 1033.56 156.022 1033.49 155.861C1033.42 155.7 1033.32 155.553 1033.2 155.43Z" fill="#7CFFFF"/>
<path d="M1026.13 155.04C1025.96 155.039 1025.78 155.072 1025.62 155.139C1025.46 155.205 1025.31 155.303 1025.19 155.427C1025.07 155.551 1024.97 155.698 1024.9 155.86C1024.84 156.022 1024.81 156.196 1024.81 156.37C1024.81 156.542 1024.84 156.713 1024.91 156.873C1024.97 157.033 1025.07 157.178 1025.19 157.3C1025.34 157.452 1025.53 157.563 1025.74 157.625C1025.95 157.687 1026.17 157.697 1026.38 157.654C1026.59 157.611 1026.79 157.517 1026.95 157.38C1027.12 157.243 1027.25 157.066 1027.34 156.867C1027.42 156.667 1027.45 156.451 1027.43 156.235C1027.41 156.02 1027.34 155.813 1027.22 155.633C1027.1 155.453 1026.94 155.304 1026.75 155.201C1026.56 155.097 1026.35 155.042 1026.13 155.04Z" fill="#7CFFFF"/>
<path d="M877.96 93.27H886.45L889.77 89.95H877.96V93.27Z" fill="#7CFFFF"/>
<path d="M890.48 83.93H877.96V83H873V83.93H877.96V88.95H890.48V83.93Z" fill="#7CFFFF"/>
<path d="M886.2 95.4301C885.983 95.2152 885.699 95.0819 885.396 95.0529C885.092 95.0238 884.788 95.1009 884.534 95.2709C884.281 95.4409 884.094 95.6934 884.006 95.9854C883.918 96.2774 883.934 96.591 884.051 96.8727C884.168 97.1545 884.378 97.3871 884.647 97.5309C884.916 97.6747 885.227 97.721 885.526 97.6618C885.825 97.6025 886.095 97.4415 886.289 97.206C886.483 96.9705 886.589 96.6751 886.59 96.3701C886.59 96.1954 886.556 96.0224 886.489 95.861C886.422 95.6996 886.324 95.5532 886.2 95.4301Z" fill="#7CFFFF"/>
<path d="M879.13 95.0401C878.955 95.0387 878.782 95.0723 878.621 95.1388C878.459 95.2053 878.313 95.3033 878.19 95.4272C878.067 95.5511 877.97 95.6984 877.905 95.8603C877.84 96.0222 877.807 96.1955 877.81 96.3701C877.809 96.5425 877.842 96.7134 877.907 96.873C877.972 97.0326 878.069 97.1777 878.19 97.3001C878.344 97.4518 878.533 97.5634 878.74 97.6251C878.947 97.6868 879.166 97.6967 879.378 97.6539C879.59 97.6111 879.788 97.517 879.955 97.3798C880.122 97.2426 880.252 97.0665 880.335 96.8669C880.418 96.6674 880.451 96.4505 880.431 96.2354C880.41 96.0202 880.337 95.8134 880.218 95.633C880.099 95.4527 879.938 95.3042 879.748 95.2008C879.558 95.0975 879.346 95.0423 879.13 95.0401Z" fill="#7CFFFF"/>
<path d="M829.96 104.27H838.45L841.77 100.95H829.96V104.27Z" fill="#7CFFFF"/>
<path d="M842.48 94.93H829.96V94H825V94.93H829.96V99.95H842.48V94.93Z" fill="#7CFFFF"/>
<path d="M838.2 106.43C837.983 106.215 837.699 106.082 837.396 106.053C837.092 106.024 836.788 106.101 836.534 106.271C836.281 106.441 836.094 106.693 836.006 106.985C835.918 107.277 835.934 107.591 836.051 107.873C836.168 108.154 836.378 108.387 836.647 108.531C836.916 108.675 837.227 108.721 837.526 108.662C837.825 108.603 838.095 108.441 838.289 108.206C838.483 107.971 838.589 107.675 838.59 107.37C838.59 107.195 838.556 107.022 838.489 106.861C838.422 106.7 838.324 106.553 838.2 106.43Z" fill="#7CFFFF"/>
<path d="M831.13 106.04C830.955 106.039 830.782 106.072 830.621 106.139C830.459 106.205 830.313 106.303 830.19 106.427C830.067 106.551 829.97 106.698 829.905 106.86C829.84 107.022 829.807 107.196 829.81 107.37C829.809 107.542 829.842 107.713 829.907 107.873C829.972 108.033 830.069 108.178 830.19 108.3C830.344 108.452 830.533 108.563 830.74 108.625C830.947 108.687 831.166 108.697 831.378 108.654C831.59 108.611 831.788 108.517 831.955 108.38C832.122 108.243 832.252 108.066 832.335 107.867C832.418 107.667 832.451 107.451 832.431 107.235C832.41 107.02 832.337 106.813 832.218 106.633C832.099 106.453 831.938 106.304 831.748 106.201C831.558 106.097 831.346 106.042 831.13 106.04Z" fill="#7CFFFF"/>
<path d="M778.96 111.27H787.45L790.77 107.95H778.96V111.27Z" fill="#7CFFFF"/>
<path d="M791.48 101.93H778.96V101H774V101.93H778.96V106.95H791.48V101.93Z" fill="#7CFFFF"/>
<path d="M787.2 113.43C786.983 113.215 786.699 113.082 786.396 113.053C786.092 113.024 785.788 113.101 785.534 113.271C785.281 113.441 785.094 113.693 785.006 113.985C784.918 114.277 784.934 114.591 785.051 114.873C785.168 115.154 785.378 115.387 785.647 115.531C785.916 115.675 786.227 115.721 786.526 115.662C786.825 115.603 787.095 115.441 787.289 115.206C787.483 114.971 787.589 114.675 787.59 114.37C787.59 114.195 787.556 114.022 787.489 113.861C787.422 113.7 787.324 113.553 787.2 113.43Z" fill="#7CFFFF"/>
<path d="M780.13 113.04C779.955 113.039 779.782 113.072 779.621 113.139C779.459 113.205 779.313 113.303 779.19 113.427C779.067 113.551 778.97 113.698 778.905 113.86C778.84 114.022 778.807 114.196 778.81 114.37C778.809 114.542 778.842 114.713 778.907 114.873C778.972 115.033 779.069 115.178 779.19 115.3C779.344 115.452 779.533 115.563 779.74 115.625C779.947 115.687 780.166 115.697 780.378 115.654C780.59 115.611 780.788 115.517 780.955 115.38C781.122 115.243 781.252 115.066 781.335 114.867C781.418 114.667 781.451 114.451 781.431 114.235C781.41 114.02 781.337 113.813 781.218 113.633C781.099 113.453 780.938 113.304 780.748 113.201C780.558 113.097 780.346 113.042 780.13 113.04Z" fill="#7CFFFF"/>
<path d="M784.96 73.27H793.45L796.77 69.95H784.96V73.27Z" fill="#7CFFFF"/>
<path d="M797.48 63.93H784.96V63H780V63.93H784.96V68.95H797.48V63.93Z" fill="#7CFFFF"/>
<path d="M793.2 75.4301C792.983 75.2152 792.699 75.0819 792.396 75.0529C792.092 75.0238 791.788 75.1009 791.534 75.2709C791.281 75.4409 791.094 75.6934 791.006 75.9854C790.918 76.2774 790.934 76.591 791.051 76.8727C791.168 77.1545 791.378 77.3871 791.647 77.5309C791.916 77.6747 792.227 77.721 792.526 77.6618C792.825 77.6025 793.095 77.4415 793.289 77.206C793.483 76.9705 793.589 76.6751 793.59 76.3701C793.59 76.1954 793.556 76.0224 793.489 75.861C793.422 75.6996 793.324 75.5532 793.2 75.4301Z" fill="#7CFFFF"/>
<path d="M786.13 75.0401C785.955 75.0387 785.782 75.0723 785.621 75.1388C785.459 75.2053 785.313 75.3033 785.19 75.4272C785.067 75.5511 784.97 75.6984 784.905 75.8603C784.84 76.0222 784.807 76.1955 784.81 76.3701C784.809 76.5425 784.842 76.7134 784.907 76.873C784.972 77.0326 785.069 77.1777 785.19 77.3001C785.344 77.4518 785.533 77.5634 785.74 77.6251C785.947 77.6868 786.166 77.6967 786.378 77.6539C786.59 77.6111 786.788 77.517 786.955 77.3798C787.122 77.2426 787.252 77.0665 787.335 76.8669C787.418 76.6674 787.451 76.4505 787.431 76.2354C787.41 76.0202 787.337 75.8134 787.218 75.633C787.099 75.4527 786.938 75.3042 786.748 75.2008C786.558 75.0975 786.346 75.0423 786.13 75.0401Z" fill="#7CFFFF"/>
<path d="M829.96 37.27H838.45L841.77 33.95H829.96V37.27Z" fill="#7CFFFF"/>
<path d="M842.48 27.93H829.96V27H825V27.93H829.96V32.95H842.48V27.93Z" fill="#7CFFFF"/>
<path d="M838.2 39.4301C837.983 39.2152 837.699 39.0819 837.396 39.0529C837.092 39.0238 836.788 39.1009 836.534 39.2709C836.281 39.4409 836.094 39.6934 836.006 39.9854C835.918 40.2774 835.934 40.591 836.051 40.8727C836.168 41.1545 836.378 41.3871 836.647 41.5309C836.916 41.6747 837.227 41.721 837.526 41.6618C837.825 41.6025 838.095 41.4415 838.289 41.206C838.483 40.9705 838.589 40.6751 838.59 40.3701C838.59 40.1954 838.556 40.0224 838.489 39.861C838.422 39.6996 838.324 39.5532 838.2 39.4301Z" fill="#7CFFFF"/>
<path d="M831.13 39.0401C830.955 39.0387 830.782 39.0723 830.621 39.1388C830.459 39.2053 830.313 39.3033 830.19 39.4272C830.067 39.5511 829.97 39.6984 829.905 39.8603C829.84 40.0222 829.807 40.1955 829.81 40.3701C829.809 40.5425 829.842 40.7134 829.907 40.873C829.972 41.0326 830.069 41.1777 830.19 41.3001C830.344 41.4518 830.533 41.5634 830.74 41.6251C830.947 41.6868 831.166 41.6967 831.378 41.6539C831.59 41.6111 831.788 41.517 831.955 41.3798C832.122 41.2426 832.252 41.0665 832.335 40.8669C832.418 40.6674 832.451 40.4505 832.431 40.2354C832.41 40.0202 832.337 39.8134 832.218 39.633C832.099 39.4527 831.938 39.3042 831.748 39.2008C831.558 39.0975 831.346 39.0423 831.13 39.0401Z" fill="#7CFFFF"/>
<path d="M682.96 62.27H691.45L694.77 58.95H682.96V62.27Z" fill="#7CFFFF"/>
<path d="M695.48 52.93H682.96V52H678V52.93H682.96V57.95H695.48V52.93Z" fill="#7CFFFF"/>
<path d="M691.2 64.4301C690.983 64.2152 690.699 64.0819 690.396 64.0529C690.092 64.0238 689.788 64.1009 689.534 64.2709C689.281 64.4409 689.094 64.6934 689.006 64.9854C688.918 65.2774 688.934 65.591 689.051 65.8727C689.168 66.1545 689.378 66.3871 689.647 66.5309C689.916 66.6747 690.227 66.721 690.526 66.6618C690.825 66.6025 691.095 66.4415 691.289 66.206C691.483 65.9705 691.589 65.6751 691.59 65.3701C691.59 65.1954 691.556 65.0224 691.489 64.861C691.422 64.6996 691.324 64.5532 691.2 64.4301Z" fill="#7CFFFF"/>
<path d="M684.13 64.0401C683.955 64.0387 683.782 64.0723 683.621 64.1388C683.459 64.2053 683.313 64.3033 683.19 64.4272C683.067 64.5511 682.97 64.6984 682.905 64.8603C682.84 65.0222 682.807 65.1955 682.81 65.3701C682.809 65.5425 682.842 65.7134 682.907 65.873C682.972 66.0326 683.069 66.1777 683.19 66.3001C683.344 66.4518 683.533 66.5634 683.74 66.6251C683.947 66.6868 684.166 66.6967 684.378 66.6539C684.59 66.6111 684.788 66.517 684.955 66.3798C685.122 66.2426 685.252 66.0665 685.335 65.8669C685.418 65.6674 685.451 65.4505 685.431 65.2354C685.41 65.0202 685.337 64.8134 685.218 64.633C685.099 64.4527 684.938 64.3042 684.748 64.2008C684.558 64.0975 684.346 64.0423 684.13 64.0401Z" fill="#7CFFFF"/>
<path d="M653.96 111.27H662.45L665.77 107.95H653.96V111.27Z" fill="#7CFFFF"/>
<path d="M666.48 101.93H653.96V101H649V101.93H653.96V106.95H666.48V101.93Z" fill="#7CFFFF"/>
<path d="M662.2 113.43C661.983 113.215 661.699 113.082 661.396 113.053C661.092 113.024 660.788 113.101 660.534 113.271C660.281 113.441 660.094 113.693 660.006 113.985C659.918 114.277 659.934 114.591 660.051 114.873C660.168 115.154 660.378 115.387 660.647 115.531C660.916 115.675 661.227 115.721 661.526 115.662C661.825 115.603 662.095 115.441 662.289 115.206C662.483 114.971 662.589 114.675 662.59 114.37C662.59 114.195 662.556 114.022 662.489 113.861C662.422 113.7 662.324 113.553 662.2 113.43Z" fill="#7CFFFF"/>
<path d="M655.13 113.04C654.955 113.039 654.782 113.072 654.621 113.139C654.459 113.205 654.313 113.303 654.19 113.427C654.067 113.551 653.97 113.698 653.905 113.86C653.84 114.022 653.807 114.196 653.81 114.37C653.809 114.542 653.842 114.713 653.907 114.873C653.972 115.033 654.069 115.178 654.19 115.3C654.344 115.452 654.533 115.563 654.74 115.625C654.947 115.687 655.166 115.697 655.378 115.654C655.59 115.611 655.788 115.517 655.955 115.38C656.122 115.243 656.252 115.066 656.335 114.867C656.418 114.667 656.451 114.451 656.431 114.235C656.41 114.02 656.337 113.813 656.218 113.633C656.099 113.453 655.938 113.304 655.748 113.201C655.558 113.097 655.346 113.042 655.13 113.04Z" fill="#7CFFFF"/>
<path d="M575.96 52.27H584.45L587.77 48.95H575.96V52.27Z" fill="#7CFFFF"/>
<path d="M588.48 42.93H575.96V42H571V42.93H575.96V47.95H588.48V42.93Z" fill="#7CFFFF"/>
<path d="M584.2 54.4301C583.983 54.2152 583.699 54.0819 583.396 54.0529C583.092 54.0238 582.788 54.1009 582.534 54.2709C582.281 54.4409 582.094 54.6934 582.006 54.9854C581.918 55.2774 581.934 55.591 582.051 55.8727C582.168 56.1545 582.378 56.3871 582.647 56.5309C582.916 56.6747 583.227 56.721 583.526 56.6618C583.825 56.6025 584.095 56.4415 584.289 56.206C584.483 55.9705 584.589 55.6751 584.59 55.3701C584.59 55.1954 584.556 55.0224 584.489 54.861C584.422 54.6996 584.324 54.5532 584.2 54.4301Z" fill="#7CFFFF"/>
<path d="M577.13 54.0401C576.955 54.0387 576.782 54.0723 576.621 54.1388C576.459 54.2053 576.313 54.3033 576.19 54.4272C576.067 54.5511 575.97 54.6984 575.905 54.8603C575.84 55.0222 575.807 55.1955 575.81 55.3701C575.809 55.5425 575.842 55.7134 575.907 55.873C575.972 56.0326 576.069 56.1777 576.19 56.3001C576.344 56.4518 576.533 56.5634 576.74 56.6251C576.947 56.6868 577.166 56.6967 577.378 56.6539C577.59 56.6111 577.788 56.517 577.955 56.3798C578.122 56.2426 578.252 56.0665 578.335 55.8669C578.418 55.6674 578.451 55.4505 578.431 55.2354C578.41 55.0202 578.337 54.8134 578.218 54.633C578.099 54.4527 577.938 54.3042 577.748 54.2008C577.558 54.0975 577.346 54.0423 577.13 54.0401Z" fill="#7CFFFF"/>
<path d="M256.96 214.27H265.45L268.77 210.95H256.96V214.27Z" fill="#7CFFFF"/>
<path d="M269.48 204.93H256.96V204H252V204.93H256.96V209.95H269.48V204.93Z" fill="#7CFFFF"/>
<path d="M265.2 216.43C264.984 216.215 264.699 216.082 264.396 216.053C264.092 216.024 263.788 216.101 263.534 216.271C263.281 216.441 263.095 216.693 263.006 216.985C262.918 217.277 262.934 217.591 263.051 217.873C263.168 218.154 263.379 218.387 263.648 218.531C263.917 218.675 264.227 218.721 264.526 218.662C264.826 218.603 265.095 218.441 265.289 218.206C265.483 217.971 265.589 217.675 265.59 217.37C265.59 217.195 265.556 217.022 265.489 216.861C265.422 216.7 265.324 216.553 265.2 216.43Z" fill="#7CFFFF"/>
<path d="M258.13 216.04C257.955 216.039 257.782 216.072 257.621 216.139C257.459 216.205 257.313 216.303 257.19 216.427C257.067 216.551 256.97 216.698 256.905 216.86C256.84 217.022 256.807 217.196 256.81 217.37C256.809 217.542 256.842 217.713 256.907 217.873C256.972 218.033 257.069 218.178 257.19 218.3C257.344 218.452 257.533 218.563 257.74 218.625C257.947 218.687 258.166 218.697 258.378 218.654C258.59 218.611 258.788 218.517 258.955 218.38C259.122 218.243 259.252 218.066 259.335 217.867C259.418 217.667 259.451 217.451 259.431 217.235C259.41 217.02 259.337 216.813 259.218 216.633C259.099 216.453 258.938 216.304 258.748 216.201C258.558 216.097 258.346 216.042 258.13 216.04Z" fill="#7CFFFF"/>
<path d="M575.96 111.27H584.45L587.77 107.95H575.96V111.27Z" fill="#7CFFFF"/>
<path d="M588.48 101.93H575.96V101H571V101.93H575.96V106.95H588.48V101.93Z" fill="#7CFFFF"/>
<path d="M584.2 113.43C583.983 113.215 583.699 113.082 583.396 113.053C583.092 113.024 582.788 113.101 582.534 113.271C582.281 113.441 582.094 113.693 582.006 113.985C581.918 114.277 581.934 114.591 582.051 114.873C582.168 115.154 582.378 115.387 582.647 115.531C582.916 115.675 583.227 115.721 583.526 115.662C583.825 115.603 584.095 115.441 584.289 115.206C584.483 114.971 584.589 114.675 584.59 114.37C584.59 114.195 584.556 114.022 584.489 113.861C584.422 113.7 584.324 113.553 584.2 113.43Z" fill="#7CFFFF"/>
<path d="M577.13 113.04C576.955 113.039 576.782 113.072 576.621 113.139C576.459 113.205 576.313 113.303 576.19 113.427C576.067 113.551 575.97 113.698 575.905 113.86C575.84 114.022 575.807 114.196 575.81 114.37C575.809 114.542 575.842 114.713 575.907 114.873C575.972 115.033 576.069 115.178 576.19 115.3C576.344 115.452 576.533 115.563 576.74 115.625C576.947 115.687 577.166 115.697 577.378 115.654C577.59 115.611 577.788 115.517 577.955 115.38C578.122 115.243 578.252 115.066 578.335 114.867C578.418 114.667 578.451 114.451 578.431 114.235C578.41 114.02 578.337 113.813 578.218 113.633C578.099 113.453 577.938 113.304 577.748 113.201C577.558 113.097 577.346 113.042 577.13 113.04Z" fill="#7CFFFF"/>
<path d="M751 178.878C751.4 178.878 751.7 179.078 752 179.278C752.3 179.578 752.4 179.878 752.4 180.278C752.4 180.678 752.2 180.978 752 181.278C751.7 181.578 751.4 181.678 751 181.678C750.6 181.678 750.3 181.478 750 181.278C749.7 181.078 749.6 180.678 749.6 180.278C749.6 179.878 749.8 179.578 750 179.278C750.3 178.978 750.6 178.878 751 178.878Z" fill="#7CFFFF"/>
<path d="M757.5 178.878C757.9 178.878 758.2 179.078 758.5 179.278C758.8 179.578 758.9 179.878 758.9 180.278C758.9 180.678 758.7 180.978 758.5 181.278C758.2 181.578 757.9 181.678 757.5 181.678C757.1 181.678 756.8 181.478 756.5 181.278C756.2 180.978 756.1 180.678 756.1 180.278C756.1 179.878 756.3 179.578 756.5 179.278C756.8 178.978 757.1 178.878 757.5 178.878Z" fill="#7CFFFF"/>
<path d="M749.9 173.578V176.678H758.7L761.8 173.578H749.9Z" fill="#7CFFFF"/>
<path d="M762.8 167.078H749.9V171.978H762.8V167.078Z" fill="#7CFFFF"/>
<path d="M749.9 165.578H744.7V167.078H749.9V165.578Z" fill="#7CFFFF"/>
<path d="M720.6 256.978H677.6V270.778H720.6V256.978Z" fill="#0098B6"/>
<path d="M682.4 256.978V270.778" stroke="#1E1E1E" stroke-miterlimit="10"/>
<path d="M687.2 256.978V270.778" stroke="#1E1E1E" stroke-miterlimit="10"/>
<path d="M692 256.978V270.778" stroke="#1E1E1E" stroke-miterlimit="10"/>
<path d="M696.8 256.978V270.778" stroke="#1E1E1E" stroke-miterlimit="10"/>
<path d="M701.6 256.978V270.778" stroke="#1E1E1E" stroke-miterlimit="10"/>
<path d="M706.4 256.978V270.778" stroke="#1E1E1E" stroke-miterlimit="10"/>
<path d="M711.2 256.978V270.778" stroke="#1E1E1E" stroke-miterlimit="10"/>
<path d="M716 256.978V270.778" stroke="#1E1E1E" stroke-miterlimit="10"/>
<path d="M720.6 170.978H677.6V184.778H720.6V170.978Z" fill="#0098B6"/>
<path d="M682.4 170.978V184.778" stroke="#1E1E1E" stroke-miterlimit="10"/>
<path d="M687.2 170.978V184.778" stroke="#1E1E1E" stroke-miterlimit="10"/>
<path d="M692 170.978V184.778" stroke="#1E1E1E" stroke-miterlimit="10"/>
<path d="M696.8 170.978V184.778" stroke="#1E1E1E" stroke-miterlimit="10"/>
<path d="M701.6 170.978V184.778" stroke="#1E1E1E" stroke-miterlimit="10"/>
<path d="M706.4 170.978V184.778" stroke="#1E1E1E" stroke-miterlimit="10"/>
<path d="M711.2 170.978V184.778" stroke="#1E1E1E" stroke-miterlimit="10"/>
<path d="M716 170.978V184.778" stroke="#1E1E1E" stroke-miterlimit="10"/>
</svg>
