<svg width="303" height="844" viewBox="0 0 303 844" fill="none" xmlns="http://www.w3.org/2000/svg">
<path d="M1.87061 312.8V76.3999H117.894" stroke="#0098B6" stroke-miterlimit="10"/>
<path d="M1.66895 312.842L1.66895 375.742H20.7039L20.7039 312.842H1.66895Z" fill="#1E1E1E"/>
<path d="M118.262 53.5766V111.477H155.425V53.5766H118.262Z" fill="#1E1E1E"/>
<path d="M14.7988 417.765L14.7988 457.265H56.696V417.765H14.7988Z" stroke="#7CFFFF" stroke-miterlimit="10"/>
<path d="M62.021 417.752V457.252H89.9189V417.752H62.021Z" stroke="#7CFFFF" stroke-miterlimit="10"/>
<path d="M64.1665 279.754V312.254H89.9496V279.754H64.1665Z" stroke="#7CFFFF" stroke-miterlimit="10"/>
<path d="M54.5513 160.804V205.604H90.0028V160.804H54.5513Z" stroke="#0098B6" stroke-miterlimit="10"/>
<path fill-rule="evenodd" clip-rule="evenodd" d="M14.7612 138.5V156.6V205.6H50.2128V156.6H89.8944V96.8999H14.7612V138.5Z" stroke="#7CFFFF" stroke-miterlimit="10"/>
<path d="M94.2368 96.8779V156.578H117.905V96.8779H94.2368Z" stroke="#7CFFFF" stroke-miterlimit="10"/>
<path d="M40.5581 210.436V242.936H90.0091V210.436H40.5581Z" stroke="#7CFFFF" stroke-miterlimit="10"/>
<path d="M14.8105 210.993L14.8105 312.293H36.2628L36.2628 210.993H14.8105Z" stroke="#7CFFFF" stroke-miterlimit="10"/>
<path d="M105.007 431.408V458.108H131.898V431.408H105.007Z" stroke="#7CFFFF" stroke-miterlimit="10"/>
<path d="M104.963 398.353V425.053H131.854V398.353H104.963Z" stroke="#7CFFFF" stroke-miterlimit="10"/>
<path d="M104.939 304.815V321.915H114.608V304.815H104.939Z" stroke="#7CFFFF" stroke-miterlimit="10"/>
<path d="M163.002 314.359V331.459H178.008V314.359H163.002Z" stroke="#7CFFFF" stroke-miterlimit="10"/>
<path d="M183.406 314.319V331.419H198.412V314.319H183.406Z" stroke="#7CFFFF" stroke-miterlimit="10"/>
<path fill-rule="evenodd" clip-rule="evenodd" d="M105.001 334.7V345.3V381.6V392.2H131.792V380.5H171.574V392.2H198.364V345.3H164.02V372H138.237V345.3H114.67V334.7H105.001Z" stroke="#0098B6" stroke-miterlimit="10"/>
<path d="M171.548 398.364V425.064H198.439V398.364H171.548Z" stroke="#7CFFFF" stroke-miterlimit="10"/>
<path d="M211.273 378.344V405.044H288.622V378.344H211.273Z" stroke="#7CFFFF" stroke-miterlimit="10"/>
<path d="M211.298 347.42V374.12H288.647V347.42H211.298Z" stroke="#7CFFFF" stroke-miterlimit="10"/>
<path d="M211.321 316.497V343.197H288.67V316.497H211.321Z" stroke="#0098B6" stroke-miterlimit="10"/>
<path d="M211.308 273.91V312.31H288.657V273.91H211.308Z" stroke="#7CFFFF" stroke-miterlimit="10"/>
<path d="M211.293 224.825V268.525H288.642V224.825H211.293Z" stroke="#7CFFFF" stroke-miterlimit="10"/>
<path d="M211.295 94.7225V208.823H288.644V94.7225H211.295Z" stroke="#0098B6" stroke-miterlimit="10"/>
<path d="M155.447 94.7875V157.688H203.79V94.7875H155.447Z" stroke="#0098B6" stroke-miterlimit="10"/>
<path fill-rule="evenodd" clip-rule="evenodd" d="M211.256 457.3H232.809V482.9H288.605V457.3V437V411.4H211.256V457.3Z" stroke="#7CFFFF" stroke-miterlimit="10"/>
<path d="M138.3 431.464V458.164H165.191V431.464H138.3Z" stroke="#7CFFFF" stroke-miterlimit="10"/>
<path d="M171.592 431.42V458.12H198.483V431.42H171.592Z" stroke="#7CFFFF" stroke-miterlimit="10"/>
<path fill-rule="evenodd" clip-rule="evenodd" d="M64.2126 383.7H42.6597V412.5H58.774H73.8812H89.8949V345.3H64.2126V383.7Z" stroke="#7CFFFF" stroke-miterlimit="10"/>
<path d="M26.5767 345.309L26.5767 379.409H59.6111V345.309H26.5767Z" stroke="#7CFFFF" stroke-miterlimit="10"/>
<path d="M121.096 339.963V371.963H130.764V339.963H121.096Z" fill="#1E1E1E" stroke="#0098B6" stroke-miterlimit="10"/>
<path d="M121.116 368.8H130.784" stroke="#0098B6" stroke-miterlimit="10"/>
<path d="M121.116 365.6H130.784" stroke="#0098B6" stroke-miterlimit="10"/>
<path d="M121.116 362.4H130.784" stroke="#0098B6" stroke-miterlimit="10"/>
<path d="M121.116 359.2H130.784" stroke="#0098B6" stroke-miterlimit="10"/>
<path d="M121.116 356H130.784" stroke="#0098B6" stroke-miterlimit="10"/>
<path d="M121.116 352.8H130.784" stroke="#0098B6" stroke-miterlimit="10"/>
<path d="M121.116 349.6H130.784" stroke="#0098B6" stroke-miterlimit="10"/>
<path d="M121.116 346.4H130.784" stroke="#0098B6" stroke-miterlimit="10"/>
<path d="M121.116 343.2H130.784" stroke="#0098B6" stroke-miterlimit="10"/>
<path d="M181.237 339.976V371.976H190.906V339.976H181.237Z" fill="#1E1E1E" stroke="#0098B6" stroke-miterlimit="10"/>
<path d="M181.243 368.8H190.911" stroke="#0098B6" stroke-miterlimit="10"/>
<path d="M181.243 365.6H190.911" stroke="#0098B6" stroke-miterlimit="10"/>
<path d="M181.243 362.4H190.911" stroke="#0098B6" stroke-miterlimit="10"/>
<path d="M181.243 359.2H190.911" stroke="#0098B6" stroke-miterlimit="10"/>
<path d="M181.243 356H190.911" stroke="#0098B6" stroke-miterlimit="10"/>
<path d="M181.243 352.8H190.911" stroke="#0098B6" stroke-miterlimit="10"/>
<path d="M181.243 349.6H190.911" stroke="#0098B6" stroke-miterlimit="10"/>
<path d="M181.243 346.4H190.911" stroke="#0098B6" stroke-miterlimit="10"/>
<path d="M181.243 343.2H190.911" stroke="#0098B6" stroke-miterlimit="10"/>
<path fill-rule="evenodd" clip-rule="evenodd" d="M40.5444 312.3H59.8817V279.3L40.5444 255V312.3Z" stroke="#7CFFFF" stroke-miterlimit="10"/>
<path fill-rule="evenodd" clip-rule="evenodd" d="M89.8949 246.7V274.5L63.407 274.7L41.4512 247.1L89.8949 246.7Z" stroke="#7CFFFF" stroke-miterlimit="10"/>
<path d="M131.389 82.8999L137.029 88.5L142.77 82.8V76.3999L137.029 82.1001L131.289 76.3999V82.8L131.389 82.8999Z" fill="#0098B6"/>
<path d="M139.661 413.929H146.107V411.829H139.661V413.929Z" fill="#0098B6" stroke="#0098B6" stroke-miterlimit="10"/>
<path d="M143.922 409.698H150.368V407.597H143.922V409.698Z" fill="#0098B6" stroke="#0098B6" stroke-miterlimit="10"/>
<path d="M143.988 407.569V413.969H146.103V407.569H143.988Z" fill="#0098B6" stroke="#0098B6" stroke-miterlimit="10"/>
<path d="M148.248 403.269V409.669H150.363V403.269H148.248Z" fill="#0098B6" stroke="#0098B6" stroke-miterlimit="10"/>
<path d="M148.284 405.367H154.73V403.267H148.284V405.367Z" fill="#0098B6" stroke="#0098B6" stroke-miterlimit="10"/>
<path d="M152.545 401.137H158.991V399.037H152.545V401.137Z" fill="#0098B6" stroke="#0098B6" stroke-miterlimit="10"/>
<path d="M152.51 398.969V405.369H154.625V398.969H152.51Z" fill="#0098B6" stroke="#0098B6" stroke-miterlimit="10"/>
<path d="M156.871 394.769V401.169H158.986V394.769H156.871Z" fill="#0098B6" stroke="#0098B6" stroke-miterlimit="10"/>
<path d="M156.806 396.907H163.251V394.807H156.806V396.907Z" fill="#0098B6" stroke="#0098B6" stroke-miterlimit="10"/>
<path d="M2.54976 365.122L21.6855 365.122L21.6856 346.122L2.54976 346.122L2.54976 365.122Z" fill="#0098B6"/>
<path d="M8.04048 350.233C8.49552 350.125 8.9865 350.054 9.51339 350.018C10.0403 349.982 10.5612 349.964 11.0761 349.964C11.627 349.964 12.1838 350.018 12.7466 350.125C13.3214 350.233 13.8423 350.431 14.3094 350.718C14.7764 351.006 15.1536 351.401 15.441 351.904C15.7404 352.407 15.89 353.047 15.89 353.826C15.89 354.592 15.7523 355.239 15.4769 355.766C15.2015 356.293 14.8363 356.724 14.3812 357.059C13.9262 357.382 13.4052 357.616 12.8185 357.759C12.2317 357.903 11.627 357.975 11.0043 357.975C10.9444 357.975 10.8426 357.975 10.6989 357.975C10.5672 357.975 10.4235 357.975 10.2678 357.975C10.1241 357.963 9.98042 357.951 9.83672 357.939C9.69302 357.927 9.59123 357.915 9.53136 357.903V362.681H8.04048V350.233ZM11.112 351.257C10.8007 351.257 10.5013 351.263 10.2139 351.275C9.92653 351.287 9.699 351.317 9.53136 351.365V356.574C9.59123 356.598 9.68703 356.616 9.81875 356.628C9.95048 356.628 10.0882 356.634 10.2319 356.646C10.3756 356.646 10.5133 356.646 10.645 356.646C10.7767 356.646 10.8725 356.646 10.9324 356.646C11.3396 356.646 11.7407 356.61 12.1359 356.538C12.5431 356.454 12.9083 356.31 13.2316 356.107C13.5549 355.903 13.8124 355.616 14.004 355.245C14.2076 354.873 14.3094 354.4 14.3094 353.826C14.3094 353.335 14.2136 352.928 14.022 352.604C13.8423 352.269 13.5968 352.005 13.2855 351.814C12.9861 351.61 12.6448 351.467 12.2616 351.383C11.8784 351.299 11.4952 351.257 11.112 351.257Z" fill="#1E1E1E"/>
<path fill-rule="evenodd" clip-rule="evenodd" d="M154.352 289.9C164.927 290.2 174.797 292.8 183.66 297.3H198.364V217.3H154.352V289.9Z" stroke="#7CFFFF" stroke-miterlimit="10"/>
<path fill-rule="evenodd" clip-rule="evenodd" d="M105.001 205.6V210.9V297.3H120.713C129.274 293 138.842 290.4 149.014 289.9V210.9H198.465V180H105.001V205.6Z" stroke="#7CFFFF" stroke-miterlimit="10"/>
<path d="M149.517 355.8H153.546L151.431 353.4L149.517 355.8Z" fill="#1E1E1E"/>
<path d="M148.008 353.8L146.295 352.3V351.5C146.295 350.6 147.101 349.8 148.008 349.8C149.015 349.8 149.72 350.6 149.72 351.5V352.2V352.3L148.008 353.8Z" fill="#0098B6"/>
<path d="M150.425 353.7L146.9 356.7V362.4L153.749 356.6L150.425 353.7Z" fill="#0098B6"/>
<path d="M154.352 355L153.244 356H153.143L152.841 356.3L147.604 360.7L145.791 362.3H142.568L138.237 366H147.906L156.567 358.6H159.79L164.02 355H154.352Z" fill="#0098B6"/>
<path d="M148.713 355.3L148.813 355.4L148.713 355.3Z" fill="#7CFFFF"/>
<g clip-path="url(#clip0_209_1574)">
<path d="M173.246 259.438C173.584 259.438 173.837 259.522 174.006 259.774C174.175 259.941 174.344 260.277 174.344 260.529C174.344 260.864 174.26 261.116 174.006 261.284C173.837 261.536 173.584 261.703 173.246 261.703C172.908 261.703 172.654 261.619 172.485 261.368C172.316 261.2 172.147 260.864 172.147 260.613C172.147 260.277 172.232 260.025 172.485 259.858C172.654 259.606 172.908 259.438 173.246 259.438ZM178.4 259.438C178.738 259.438 178.992 259.522 179.161 259.774C179.33 259.941 179.499 260.277 179.499 260.529C179.499 260.864 179.414 261.116 179.161 261.284C178.992 261.536 178.738 261.703 178.4 261.703C178.147 261.703 177.893 261.536 177.64 261.368C177.471 261.116 177.302 260.864 177.302 260.529C177.302 260.193 177.386 259.941 177.64 259.774C177.893 259.606 178.147 259.438 178.4 259.438ZM168.091 250.125H172.316V254.488H182.879V250.125H172.232V249.37H168.007V250.125H168.091ZM172.232 254.907V258.012H179.414L182.541 254.907H172.232V254.907Z" fill="#7CFFFF"/>
<path d="M183.301 254.74H171.049" stroke="#1E1E1E" stroke-width="0.839" stroke-miterlimit="10"/>
</g>
<g clip-path="url(#clip1_209_1574)">
<path d="M125.926 259.738C126.264 259.738 126.517 259.822 126.686 260.074C126.855 260.242 127.024 260.577 127.024 260.829C127.024 261.165 126.94 261.416 126.686 261.584C126.517 261.836 126.264 262.004 125.926 262.004C125.588 262.004 125.334 261.92 125.165 261.668C124.996 261.5 124.827 261.165 124.827 260.913C124.827 260.577 124.912 260.326 125.165 260.158C125.334 259.906 125.588 259.738 125.926 259.738ZM131.08 259.738C131.418 259.738 131.672 259.822 131.841 260.074C132.01 260.242 132.179 260.577 132.179 260.829C132.179 261.165 132.094 261.416 131.841 261.584C131.672 261.836 131.418 262.004 131.08 262.004C130.827 262.004 130.573 261.836 130.32 261.668C130.151 261.416 129.982 261.165 129.982 260.829C129.982 260.493 130.066 260.242 130.32 260.074C130.573 259.906 130.827 259.738 131.08 259.738ZM120.772 250.425H124.996V254.788H135.559V250.425H124.912V249.67H120.687V250.425H120.772ZM124.912 255.208V258.312H132.094L135.221 255.208H124.912V255.208Z" fill="#7CFFFF"/>
<path d="M135.981 255.04H123.729" stroke="#1E1E1E" stroke-width="0.839" stroke-miterlimit="10"/>
</g>
<g clip-path="url(#clip2_209_1574)">
<path d="M53.9787 127.611C54.3167 127.611 54.5702 127.695 54.7392 127.947C54.9082 128.115 55.0772 128.45 55.0772 128.702C55.0772 129.037 54.9927 129.289 54.7392 129.457C54.5702 129.709 54.3167 129.876 53.9787 129.876C53.6407 129.876 53.3872 129.793 53.2182 129.541C53.0492 129.373 52.8802 129.037 52.8802 128.786C52.8802 128.45 52.9647 128.198 53.2182 128.031C53.3872 127.779 53.6407 127.611 53.9787 127.611ZM59.1332 127.611C59.4712 127.611 59.7247 127.695 59.8937 127.947C60.0627 128.115 60.2317 128.45 60.2317 128.702C60.2317 129.037 60.1472 129.289 59.8937 129.457C59.7247 129.709 59.4712 129.876 59.1332 129.876C58.8797 129.876 58.6262 129.709 58.3727 129.541C58.2037 129.289 58.0347 129.037 58.0347 128.702C58.0347 128.366 58.1192 128.115 58.3727 127.947C58.6262 127.779 58.8797 127.611 59.1332 127.611ZM48.8242 118.298H53.0492V122.661H63.6117V118.298H52.9647V117.543H48.7397V118.298H48.8242ZM52.9647 123.081V126.185H60.1472L63.2737 123.081H52.9647V123.081Z" fill="#7CFFFF"/>
<path d="M64.0342 122.913H51.7817" stroke="#1E1E1E" stroke-width="0.839" stroke-miterlimit="10"/>
</g>
<g clip-path="url(#clip3_209_1574)">
<path d="M249.387 296.757C249.725 296.757 249.978 296.841 250.147 297.092C250.316 297.26 250.485 297.596 250.485 297.847C250.485 298.183 250.401 298.435 250.147 298.602C249.978 298.854 249.725 299.022 249.387 299.022C249.049 299.022 248.795 298.938 248.626 298.686C248.457 298.519 248.288 298.183 248.288 297.931C248.288 297.596 248.373 297.344 248.626 297.176C248.795 296.924 249.049 296.757 249.387 296.757ZM254.541 296.757C254.879 296.757 255.133 296.841 255.302 297.092C255.471 297.26 255.64 297.596 255.64 297.847C255.64 298.183 255.555 298.435 255.302 298.602C255.133 298.854 254.879 299.022 254.541 299.022C254.288 299.022 254.034 298.854 253.781 298.686C253.612 298.435 253.443 298.183 253.443 297.847C253.443 297.512 253.527 297.26 253.781 297.092C254.034 296.924 254.288 296.757 254.541 296.757ZM244.232 287.444H248.457V291.807H259.02V287.444H248.373V286.689H244.148V287.444H244.232ZM248.373 292.226V295.33H255.555L258.682 292.226H248.373V292.226Z" fill="#7CFFFF"/>
<path d="M259.442 292.058H247.19" stroke="#1E1E1E" stroke-width="0.839" stroke-miterlimit="10"/>
</g>
<g clip-path="url(#clip4_209_1574)">
<path d="M249.387 364.6C249.725 364.6 249.978 364.684 250.147 364.936C250.316 365.103 250.485 365.439 250.485 365.691C250.485 366.026 250.401 366.278 250.147 366.446C249.978 366.697 249.725 366.865 249.387 366.865C249.049 366.865 248.795 366.781 248.626 366.53C248.457 366.362 248.288 366.026 248.288 365.775C248.288 365.439 248.373 365.187 248.626 365.019C248.795 364.768 249.049 364.6 249.387 364.6ZM254.541 364.6C254.879 364.6 255.133 364.684 255.302 364.936C255.471 365.103 255.64 365.439 255.64 365.691C255.64 366.026 255.555 366.278 255.302 366.446C255.133 366.697 254.879 366.865 254.541 366.865C254.288 366.865 254.034 366.697 253.781 366.53C253.612 366.278 253.443 366.026 253.443 365.691C253.443 365.355 253.527 365.103 253.781 364.936C254.034 364.768 254.288 364.6 254.541 364.6ZM244.232 355.287H248.457V359.65H259.02V355.287H248.373V354.532H244.148V355.287H244.232ZM248.373 360.069V363.174H255.555L258.682 360.069H248.373V360.069Z" fill="#7CFFFF"/>
<path d="M259.442 359.902H247.19" stroke="#1E1E1E" stroke-width="0.839" stroke-miterlimit="10"/>
</g>
<g clip-path="url(#clip5_209_1574)">
<path d="M249.387 394.6C249.725 394.6 249.978 394.684 250.147 394.935C250.316 395.103 250.485 395.439 250.485 395.69C250.485 396.026 250.401 396.278 250.147 396.445C249.978 396.697 249.725 396.865 249.387 396.865C249.049 396.865 248.795 396.781 248.626 396.529C248.457 396.362 248.288 396.026 248.288 395.774C248.288 395.439 248.373 395.187 248.626 395.019C248.795 394.767 249.049 394.6 249.387 394.6ZM254.541 394.6C254.879 394.6 255.133 394.684 255.302 394.935C255.471 395.103 255.64 395.439 255.64 395.69C255.64 396.026 255.555 396.278 255.302 396.445C255.133 396.697 254.879 396.865 254.541 396.865C254.288 396.865 254.034 396.697 253.781 396.529C253.612 396.278 253.443 396.026 253.443 395.69C253.443 395.355 253.527 395.103 253.781 394.935C254.034 394.767 254.288 394.6 254.541 394.6ZM244.232 385.287H248.457V389.65H259.02V385.287H248.373V384.532H244.148V385.287H244.232ZM248.373 390.069V393.173H255.555L258.682 390.069H248.373V390.069Z" fill="#7CFFFF"/>
<path d="M259.442 389.901H247.19" stroke="#1E1E1E" stroke-width="0.839" stroke-miterlimit="10"/>
</g>
<g clip-path="url(#clip6_209_1574)">
<path d="M249.387 441.711C249.725 441.711 249.978 441.795 250.147 442.046C250.316 442.214 250.485 442.55 250.485 442.801C250.485 443.137 250.401 443.389 250.147 443.557C249.978 443.808 249.725 443.976 249.387 443.976C249.049 443.976 248.795 443.892 248.626 443.64C248.457 443.473 248.288 443.137 248.288 442.885C248.288 442.55 248.373 442.298 248.626 442.13C248.795 441.879 249.049 441.711 249.387 441.711ZM254.541 441.711C254.879 441.711 255.133 441.795 255.302 442.046C255.471 442.214 255.64 442.55 255.64 442.801C255.64 443.137 255.555 443.389 255.302 443.557C255.133 443.808 254.879 443.976 254.541 443.976C254.288 443.976 254.034 443.808 253.781 443.64C253.612 443.389 253.443 443.137 253.443 442.801C253.443 442.466 253.527 442.214 253.781 442.046C254.034 441.879 254.288 441.711 254.541 441.711ZM244.232 432.398H248.457V436.761H259.02V432.398H248.373V431.643H244.148V432.398H244.232ZM248.373 437.18V440.284H255.555L258.682 437.18H248.373V437.18Z" fill="#7CFFFF"/>
<path d="M259.442 437.012H247.19" stroke="#1E1E1E" stroke-width="0.839" stroke-miterlimit="10"/>
</g>
<g clip-path="url(#clip7_209_1574)">
<path d="M249.387 249.657C249.725 249.657 249.978 249.741 250.147 249.993C250.316 250.16 250.485 250.496 250.485 250.748C250.485 251.083 250.401 251.335 250.147 251.503C249.978 251.755 249.725 251.922 249.387 251.922C249.049 251.922 248.795 251.838 248.626 251.587C248.457 251.419 248.288 251.083 248.288 250.832C248.288 250.496 248.373 250.244 248.626 250.077C248.795 249.825 249.049 249.657 249.387 249.657ZM254.541 249.657C254.879 249.657 255.133 249.741 255.302 249.993C255.471 250.16 255.64 250.496 255.64 250.748C255.64 251.083 255.555 251.335 255.302 251.503C255.133 251.755 254.879 251.922 254.541 251.922C254.288 251.922 254.034 251.755 253.781 251.587C253.612 251.335 253.443 251.083 253.443 250.748C253.443 250.412 253.527 250.16 253.781 249.993C254.034 249.825 254.288 249.657 254.541 249.657ZM244.232 240.344H248.457V244.707H259.02V240.344H248.373V239.589H244.148V240.344H244.232ZM248.373 245.126V248.231H255.555L258.682 245.126H248.373V245.126Z" fill="#7CFFFF"/>
<path d="M259.442 244.959H247.19" stroke="#1E1E1E" stroke-width="0.839" stroke-miterlimit="10"/>
</g>
<g clip-path="url(#clip8_209_1574)">
<path d="M150.092 448.153C150.43 448.153 150.683 448.237 150.852 448.489C151.021 448.656 151.19 448.992 151.19 449.244C151.19 449.579 151.106 449.831 150.852 449.999C150.683 450.25 150.43 450.418 150.092 450.418C149.754 450.418 149.5 450.334 149.331 450.083C149.162 449.915 148.993 449.579 148.993 449.328C148.993 448.992 149.078 448.74 149.331 448.572C149.5 448.321 149.754 448.153 150.092 448.153ZM155.246 448.153C155.584 448.153 155.837 448.237 156.006 448.489C156.175 448.656 156.344 448.992 156.344 449.244C156.344 449.579 156.26 449.831 156.006 449.999C155.837 450.25 155.584 450.418 155.246 450.418C154.992 450.418 154.739 450.25 154.485 450.083C154.316 449.831 154.147 449.579 154.147 449.244C154.147 448.908 154.232 448.656 154.485 448.489C154.739 448.321 154.992 448.153 155.246 448.153ZM144.937 438.84H149.162V443.203H159.724V438.84H149.078V438.085H144.853V438.84H144.937ZM149.078 443.622V446.727H156.26L159.386 443.622H149.078V443.622Z" fill="#7CFFFF"/>
<path d="M160.147 443.455H147.895" stroke="#1E1E1E" stroke-width="0.839" stroke-miterlimit="10"/>
</g>
<g clip-path="url(#clip9_209_1574)">
<path d="M116.407 448.153C116.745 448.153 116.998 448.237 117.167 448.489C117.336 448.656 117.505 448.992 117.505 449.244C117.505 449.579 117.421 449.831 117.167 449.999C116.998 450.25 116.745 450.418 116.407 450.418C116.069 450.418 115.815 450.334 115.646 450.083C115.477 449.915 115.308 449.579 115.308 449.328C115.308 448.992 115.393 448.74 115.646 448.572C115.815 448.321 116.069 448.153 116.407 448.153ZM121.561 448.153C121.899 448.153 122.153 448.237 122.322 448.489C122.491 448.656 122.66 448.992 122.66 449.244C122.66 449.579 122.575 449.831 122.322 449.999C122.153 450.25 121.899 450.418 121.561 450.418C121.308 450.418 121.054 450.25 120.801 450.083C120.632 449.831 120.463 449.579 120.463 449.244C120.463 448.908 120.547 448.656 120.801 448.489C121.054 448.321 121.308 448.153 121.561 448.153ZM111.252 438.84H115.477V443.203H126.04V438.84H115.393V438.085H111.168V438.84H111.252ZM115.393 443.622V446.727H122.575L125.702 443.622H115.393V443.622Z" fill="#7CFFFF"/>
<path d="M126.462 443.455H114.21" stroke="#1E1E1E" stroke-width="0.839" stroke-miterlimit="10"/>
</g>
<g clip-path="url(#clip10_209_1574)">
<path d="M183.318 448.153C183.656 448.153 183.909 448.237 184.078 448.489C184.247 448.656 184.416 448.992 184.416 449.244C184.416 449.579 184.332 449.831 184.078 449.999C183.909 450.25 183.656 450.418 183.318 450.418C182.98 450.418 182.726 450.334 182.557 450.083C182.388 449.915 182.219 449.579 182.219 449.328C182.219 448.992 182.304 448.74 182.557 448.572C182.726 448.321 182.98 448.153 183.318 448.153ZM188.472 448.153C188.81 448.153 189.064 448.237 189.233 448.489C189.402 448.656 189.571 448.992 189.571 449.244C189.571 449.579 189.486 449.831 189.233 449.999C189.064 450.25 188.81 450.418 188.472 450.418C188.219 450.418 187.965 450.25 187.712 450.083C187.543 449.831 187.374 449.579 187.374 449.244C187.374 448.908 187.458 448.656 187.712 448.489C187.965 448.321 188.219 448.153 188.472 448.153ZM178.163 438.84H182.388V443.203H192.951V438.84H182.304V438.085H178.079V438.84H178.163ZM182.304 443.622V446.727H189.486L192.613 443.622H182.304V443.622Z" fill="#7CFFFF"/>
<path d="M193.373 443.455H181.121" stroke="#1E1E1E" stroke-width="0.839" stroke-miterlimit="10"/>
</g>
<g clip-path="url(#clip11_209_1574)">
<path d="M182.54 414.821C182.878 414.821 183.132 414.905 183.301 415.157C183.47 415.325 183.639 415.66 183.639 415.912C183.639 416.248 183.554 416.499 183.301 416.667C183.132 416.919 182.878 417.087 182.54 417.087C182.202 417.087 181.949 417.003 181.78 416.751C181.611 416.583 181.442 416.248 181.442 415.996C181.442 415.66 181.526 415.409 181.78 415.241C181.949 414.989 182.202 414.821 182.54 414.821ZM187.695 414.821C188.033 414.821 188.286 414.905 188.455 415.157C188.624 415.325 188.793 415.66 188.793 415.912C188.793 416.248 188.709 416.499 188.455 416.667C188.286 416.919 188.033 417.087 187.695 417.087C187.441 417.087 187.188 416.919 186.934 416.751C186.765 416.499 186.596 416.248 186.596 415.912C186.596 415.576 186.681 415.325 186.934 415.157C187.188 414.989 187.441 414.821 187.695 414.821ZM177.386 405.508H181.611V409.871H192.173V405.508H181.526V404.753H177.301V405.508H177.386ZM181.526 410.291V413.395H188.709L191.835 410.291H181.526V410.291Z" fill="#7CFFFF"/>
<path d="M192.596 410.123H180.343" stroke="#1E1E1E" stroke-width="0.839" stroke-miterlimit="10"/>
</g>
<g clip-path="url(#clip12_209_1574)">
<path d="M103.566 126.861C103.904 126.861 104.158 126.945 104.327 127.197C104.496 127.365 104.665 127.7 104.665 127.952C104.665 128.287 104.58 128.539 104.327 128.707C104.158 128.959 103.904 129.126 103.566 129.126C103.228 129.126 102.975 129.043 102.806 128.791C102.637 128.623 102.468 128.287 102.468 128.036C102.468 127.7 102.552 127.448 102.806 127.281C102.975 127.029 103.228 126.861 103.566 126.861ZM108.721 126.861C109.059 126.861 109.312 126.945 109.481 127.197C109.65 127.365 109.819 127.7 109.819 127.952C109.819 128.287 109.735 128.539 109.481 128.707C109.312 128.959 109.059 129.126 108.721 129.126C108.467 129.126 108.214 128.959 107.96 128.791C107.791 128.539 107.622 128.287 107.622 127.952C107.622 127.616 107.707 127.365 107.96 127.197C108.214 127.029 108.467 126.861 108.721 126.861ZM98.4116 117.548H102.637V121.911H113.199V117.548H102.552V116.793H98.3271V117.548H98.4116ZM102.552 122.331V125.435H109.735L112.861 122.331H102.552V122.331Z" fill="#7CFFFF"/>
<path d="M113.622 122.163H101.369" stroke="#1E1E1E" stroke-width="0.839" stroke-miterlimit="10"/>
</g>
<g clip-path="url(#clip13_209_1574)">
<path d="M65.5564 229.565C65.8944 229.565 66.1479 229.649 66.3169 229.901C66.4859 230.068 66.6549 230.404 66.6549 230.656C66.6549 230.991 66.5704 231.243 66.3169 231.411C66.1479 231.663 65.8944 231.83 65.5564 231.83C65.2184 231.83 64.9649 231.746 64.7959 231.495C64.6269 231.327 64.4579 230.991 64.4579 230.74C64.4579 230.404 64.5424 230.152 64.7959 229.985C64.9649 229.733 65.2184 229.565 65.5564 229.565ZM70.7108 229.565C71.0488 229.565 71.3023 229.649 71.4713 229.901C71.6403 230.068 71.8093 230.404 71.8093 230.656C71.8093 230.991 71.7248 231.243 71.4713 231.411C71.3023 231.663 71.0488 231.83 70.7108 231.83C70.4573 231.83 70.2038 231.663 69.9503 231.495C69.7813 231.243 69.6123 230.991 69.6123 230.656C69.6123 230.32 69.6968 230.068 69.9503 229.901C70.2038 229.733 70.4573 229.565 70.7108 229.565ZM60.4019 220.252H64.6269V224.615H75.1893V220.252H64.5424V219.497H60.3174V220.252H60.4019ZM64.5424 225.034V228.139H71.7248L74.8513 225.034H64.5424V225.034Z" fill="#7CFFFF"/>
<path d="M75.6118 224.867H63.3594" stroke="#1E1E1E" stroke-width="0.839" stroke-miterlimit="10"/>
</g>
<g clip-path="url(#clip14_209_1574)">
<path d="M73.1784 264.125C73.5164 264.125 73.7699 264.208 73.9389 264.46C74.1079 264.628 74.2769 264.964 74.2769 265.215C74.2769 265.551 74.1924 265.803 73.9389 265.97C73.7699 266.222 73.5164 266.39 73.1784 266.39C72.8404 266.39 72.5869 266.306 72.4179 266.054C72.2489 265.886 72.0799 265.551 72.0799 265.299C72.0799 264.964 72.1644 264.712 72.4179 264.544C72.5869 264.292 72.8404 264.125 73.1784 264.125ZM78.3329 264.125C78.6709 264.125 78.9244 264.208 79.0934 264.46C79.2624 264.628 79.4314 264.964 79.4314 265.215C79.4314 265.551 79.3469 265.803 79.0934 265.97C78.9244 266.222 78.6709 266.39 78.3329 266.39C78.0794 266.39 77.8259 266.222 77.5724 266.054C77.4034 265.803 77.2344 265.551 77.2344 265.215C77.2344 264.88 77.3189 264.628 77.5724 264.46C77.8259 264.292 78.0794 264.125 78.3329 264.125ZM68.024 254.812H72.2489V259.174H82.8114V254.812H72.1644V254.057H67.9395V254.812H68.024ZM72.1644 259.594V262.698H79.3469L82.4734 259.594H72.1644V259.594Z" fill="#7CFFFF"/>
<path d="M83.2339 259.426H70.9814" stroke="#1E1E1E" stroke-width="0.839" stroke-miterlimit="10"/>
</g>
<g clip-path="url(#clip15_209_1574)">
<path d="M74.3801 299.362C74.7181 299.362 74.9716 299.446 75.1406 299.698C75.3096 299.866 75.4786 300.201 75.4786 300.453C75.4786 300.789 75.3941 301.04 75.1406 301.208C74.9716 301.46 74.7181 301.628 74.3801 301.628C74.0421 301.628 73.7886 301.544 73.6196 301.292C73.4506 301.124 73.2816 300.789 73.2816 300.537C73.2816 300.201 73.3661 299.95 73.6196 299.782C73.7886 299.53 74.0421 299.362 74.3801 299.362ZM79.5346 299.362C79.8726 299.362 80.1261 299.446 80.2951 299.698C80.4641 299.866 80.6331 300.201 80.6331 300.453C80.6331 300.789 80.5486 301.04 80.2951 301.208C80.1261 301.46 79.8726 301.628 79.5346 301.628C79.2811 301.628 79.0276 301.46 78.7741 301.292C78.6051 301.04 78.4361 300.789 78.4361 300.453C78.4361 300.117 78.5206 299.866 78.7741 299.698C79.0276 299.53 79.2811 299.362 79.5346 299.362ZM69.2256 290.049H73.4506V294.412H84.013V290.049H73.3661V289.294H69.1411V290.049H69.2256ZM73.3661 294.832V297.936H80.5486L83.675 294.832H73.3661V294.832Z" fill="#7CFFFF"/>
<path d="M84.4356 294.664H72.1831" stroke="#1E1E1E" stroke-width="0.839" stroke-miterlimit="10"/>
</g>
<g clip-path="url(#clip16_209_1574)">
<path d="M47.759 299.362C48.097 299.362 48.3505 299.446 48.5195 299.698C48.6885 299.866 48.8575 300.201 48.8575 300.453C48.8575 300.789 48.773 301.04 48.5195 301.208C48.3505 301.46 48.097 301.628 47.759 301.628C47.421 301.628 47.1675 301.544 46.9985 301.292C46.8295 301.124 46.6605 300.789 46.6605 300.537C46.6605 300.201 46.745 299.95 46.9985 299.782C47.1675 299.53 47.421 299.362 47.759 299.362ZM52.9135 299.362C53.2515 299.362 53.505 299.446 53.674 299.698C53.843 299.866 54.012 300.201 54.012 300.453C54.012 300.789 53.9275 301.04 53.674 301.208C53.505 301.46 53.2515 301.628 52.9135 301.628C52.66 301.628 52.4065 301.46 52.153 301.292C51.984 301.04 51.815 300.789 51.815 300.453C51.815 300.117 51.8995 299.866 52.153 299.698C52.4065 299.53 52.66 299.362 52.9135 299.362ZM42.6045 290.049H46.8295V294.412H57.392V290.049H46.745V289.294H42.52V290.049H42.6045ZM46.745 294.832V297.936H53.9275L57.054 294.832H46.745V294.832Z" fill="#7CFFFF"/>
<path d="M57.8145 294.664H45.562" stroke="#1E1E1E" stroke-width="0.839" stroke-miterlimit="10"/>
</g>
<g clip-path="url(#clip17_209_1574)">
<path d="M22.8366 267.481C23.1746 267.481 23.4281 267.565 23.5971 267.816C23.7661 267.984 23.9351 268.32 23.9351 268.571C23.9351 268.907 23.8506 269.159 23.5971 269.327C23.4281 269.578 23.1746 269.746 22.8366 269.746C22.4986 269.746 22.2451 269.662 22.0761 269.41C21.9071 269.243 21.7381 268.907 21.7381 268.655C21.7381 268.32 21.8226 268.068 22.0761 267.9C22.2451 267.649 22.4986 267.481 22.8366 267.481ZM27.9911 267.481C28.3291 267.481 28.5826 267.565 28.7516 267.816C28.9206 267.984 29.0896 268.32 29.0896 268.571C29.0896 268.907 29.0051 269.159 28.7516 269.327C28.5826 269.578 28.3291 269.746 27.9911 269.746C27.7376 269.746 27.4841 269.578 27.2306 269.41C27.0616 269.159 26.8926 268.907 26.8926 268.571C26.8926 268.236 26.9771 267.984 27.2306 267.816C27.4841 267.649 27.7376 267.481 27.9911 267.481ZM17.6822 258.168H21.9071V262.531H32.4696V258.168H21.8226V257.413H17.5977V258.168H17.6822ZM21.8226 262.95V266.054H29.0051L32.1316 262.95H21.8226V262.95Z" fill="#7CFFFF"/>
<path d="M32.8921 262.782H20.6396" stroke="#1E1E1E" stroke-width="0.839" stroke-miterlimit="10"/>
</g>
<g clip-path="url(#clip18_209_1574)">
<path d="M40.5822 365.321C40.9202 365.321 41.1737 365.405 41.3427 365.656C41.5117 365.824 41.6807 366.16 41.6807 366.412C41.6807 366.747 41.5962 366.999 41.3427 367.167C41.1737 367.418 40.9202 367.586 40.5822 367.586C40.2442 367.586 39.9907 367.502 39.8217 367.251C39.6527 367.083 39.4837 366.747 39.4837 366.495C39.4837 366.16 39.5682 365.908 39.8217 365.74C39.9907 365.489 40.2442 365.321 40.5822 365.321ZM45.7367 365.321C46.0747 365.321 46.3282 365.405 46.4972 365.656C46.6662 365.824 46.8352 366.16 46.8352 366.412C46.8352 366.747 46.7507 366.999 46.4972 367.167C46.3282 367.418 46.0747 367.586 45.7367 367.586C45.4832 367.586 45.2297 367.418 44.9762 367.251C44.8072 366.999 44.6382 366.747 44.6382 366.412C44.6382 366.076 44.7227 365.824 44.9762 365.656C45.2297 365.489 45.4832 365.321 45.7367 365.321ZM35.4278 356.008H39.6527V360.371H50.2152V356.008H39.5682V355.253H35.3433V356.008H35.4278ZM39.5682 360.79V363.895H46.7507L49.8772 360.79H39.5682V360.79Z" fill="#7CFFFF"/>
<path d="M50.6377 360.623H38.3853" stroke="#1E1E1E" stroke-width="0.839" stroke-miterlimit="10"/>
</g>
<g clip-path="url(#clip19_209_1574)">
<path d="M70.531 400.833C70.869 400.833 71.1225 400.917 71.2915 401.168C71.4605 401.336 71.6295 401.672 71.6295 401.923C71.6295 402.259 71.545 402.511 71.2915 402.678C71.1225 402.93 70.869 403.098 70.531 403.098C70.193 403.098 69.9395 403.014 69.7705 402.762C69.6015 402.595 69.4325 402.259 69.4325 402.007C69.4325 401.672 69.517 401.42 69.7705 401.252C69.9395 401 70.193 400.833 70.531 400.833ZM75.6854 400.833C76.0234 400.833 76.2769 400.917 76.4459 401.168C76.6149 401.336 76.7839 401.672 76.7839 401.923C76.7839 402.259 76.6994 402.511 76.4459 402.678C76.2769 402.93 76.0234 403.098 75.6854 403.098C75.4319 403.098 75.1784 402.93 74.9249 402.762C74.756 402.511 74.587 402.259 74.587 401.923C74.587 401.588 74.6715 401.336 74.9249 401.168C75.1784 401 75.4319 400.833 75.6854 400.833ZM65.3765 391.52H69.6015V395.883H80.1639V391.52H69.517V390.765H65.292V391.52H65.3765ZM69.517 396.302V399.406H76.6994L79.8259 396.302H69.517V396.302Z" fill="#7CFFFF"/>
<path d="M80.5864 396.134H68.334" stroke="#1E1E1E" stroke-width="0.839" stroke-miterlimit="10"/>
</g>
<g clip-path="url(#clip20_209_1574)">
<path d="M32.8147 441.991C33.1527 441.991 33.4062 442.075 33.5752 442.327C33.7442 442.495 33.9132 442.83 33.9132 443.082C33.9132 443.418 33.8287 443.669 33.5752 443.837C33.4062 444.089 33.1527 444.257 32.8147 444.257C32.4767 444.257 32.2232 444.173 32.0542 443.921C31.8852 443.753 31.7162 443.418 31.7162 443.166C31.7162 442.83 31.8007 442.579 32.0542 442.411C32.2232 442.159 32.4767 441.991 32.8147 441.991ZM37.9691 441.991C38.3071 441.991 38.5606 442.075 38.7296 442.327C38.8986 442.495 39.0676 442.83 39.0676 443.082C39.0676 443.418 38.9831 443.669 38.7296 443.837C38.5606 444.089 38.3071 444.257 37.9691 444.257C37.7156 444.257 37.4621 444.089 37.2086 443.921C37.0396 443.669 36.8706 443.418 36.8706 443.082C36.8706 442.746 36.9551 442.495 37.2086 442.327C37.4621 442.159 37.7156 441.991 37.9691 441.991ZM27.6602 432.678H31.8852V437.041H42.4476V432.678H31.8007V431.923H27.5757V432.678H27.6602ZM31.8007 437.461V440.565H38.9831L42.1096 437.461H31.8007V437.461Z" fill="#7CFFFF"/>
<path d="M42.8701 437.293H30.6177" stroke="#1E1E1E" stroke-width="0.839" stroke-miterlimit="10"/>
</g>
<g clip-path="url(#clip21_209_1574)">
<path d="M149.585 670.15C149.923 670.15 150.177 670.234 150.346 670.486C150.515 670.653 150.684 670.989 150.684 671.241C150.684 671.576 150.599 671.828 150.346 671.996C150.177 672.247 149.923 672.415 149.585 672.415C149.247 672.415 148.994 672.331 148.825 672.08C148.656 671.912 148.487 671.576 148.487 671.325C148.487 670.989 148.571 670.737 148.825 670.569C148.994 670.318 149.247 670.15 149.585 670.15ZM154.74 670.15C155.078 670.15 155.331 670.234 155.5 670.486C155.669 670.653 155.838 670.989 155.838 671.241C155.838 671.576 155.754 671.828 155.5 671.996C155.331 672.247 155.078 672.415 154.74 672.415C154.486 672.415 154.233 672.247 153.979 672.08C153.81 671.828 153.641 671.576 153.641 671.241C153.641 670.905 153.726 670.653 153.979 670.486C154.233 670.318 154.486 670.15 154.74 670.15ZM144.431 660.837H148.656V665.2H159.218V660.837H148.571V660.082H144.346V660.837H144.431ZM148.571 665.619V668.724H155.754L158.88 665.619H148.571V665.619Z" fill="#7CFFFF"/>
<path d="M159.641 665.452H147.388" stroke="#1E1E1E" stroke-width="0.839" stroke-miterlimit="10"/>
</g>
<g clip-path="url(#clip22_209_1574)">
<path d="M73.6984 441.991C74.0364 441.991 74.2899 442.075 74.4589 442.327C74.6279 442.495 74.7969 442.83 74.7969 443.082C74.7969 443.418 74.7124 443.669 74.4589 443.837C74.2899 444.089 74.0364 444.257 73.6984 444.257C73.3605 444.257 73.107 444.173 72.938 443.921C72.769 443.753 72.6 443.418 72.6 443.166C72.6 442.83 72.6845 442.579 72.938 442.411C73.107 442.159 73.3605 441.991 73.6984 441.991ZM78.8529 441.991C79.1909 441.991 79.4444 442.075 79.6134 442.327C79.7824 442.495 79.9514 442.83 79.9514 443.082C79.9514 443.418 79.8669 443.669 79.6134 443.837C79.4444 444.089 79.1909 444.257 78.8529 444.257C78.5994 444.257 78.3459 444.089 78.0924 443.921C77.9234 443.669 77.7544 443.418 77.7544 443.082C77.7544 442.746 77.8389 442.495 78.0924 442.327C78.3459 442.159 78.5994 441.991 78.8529 441.991ZM68.544 432.678H72.769V437.041H83.3314V432.678H72.6845V431.923H68.4595V432.678H68.544ZM72.6845 437.461V440.565H79.8669L82.9934 437.461H72.6845V437.461Z" fill="#7CFFFF"/>
<path d="M83.7539 437.293H71.5015" stroke="#1E1E1E" stroke-width="0.839" stroke-miterlimit="10"/>
</g>
<path d="M167.949 326.7C168.251 326.7 168.453 326.8 168.654 327C168.855 327.2 168.956 327.4 168.956 327.7C168.956 328 168.855 328.2 168.654 328.4C168.453 328.6 168.251 328.7 167.949 328.7C167.647 328.7 167.445 328.6 167.244 328.4C167.043 328.2 166.942 328 166.942 327.7C166.942 327.4 167.043 327.2 167.244 327C167.445 326.9 167.647 326.7 167.949 326.7ZM172.582 326.7C172.884 326.7 173.085 326.8 173.287 327C173.488 327.2 173.589 327.4 173.589 327.7C173.589 328 173.488 328.2 173.287 328.4C173.085 328.6 172.884 328.7 172.582 328.7C172.28 328.7 172.078 328.6 171.877 328.4C171.675 328.2 171.575 328 171.575 327.7C171.575 327.4 171.675 327.2 171.877 327C172.078 326.9 172.28 326.7 172.582 326.7ZM167.043 318.4V322.3H176.51V318.4H167.043ZM167.043 322.6V325.4H173.488L176.308 322.6H167.043Z" fill="#7CFFFF"/>
<path d="M176.912 322.5H165.935" stroke="#1E1E1E" stroke-miterlimit="10"/>
<path d="M167.244 318.1H164.222" stroke="#7CFFFF" stroke-miterlimit="10"/>
<path d="M188.192 326.7C188.494 326.7 188.696 326.8 188.897 327C189.099 327.2 189.199 327.4 189.199 327.7C189.199 328 189.099 328.2 188.897 328.4C188.696 328.6 188.494 328.7 188.192 328.7C187.89 328.7 187.689 328.6 187.487 328.4C187.286 328.2 187.185 328 187.185 327.7C187.185 327.4 187.286 327.2 187.487 327C187.689 326.9 187.991 326.7 188.192 326.7ZM192.825 326.7C193.127 326.7 193.329 326.8 193.53 327C193.732 327.2 193.832 327.4 193.832 327.7C193.832 328 193.732 328.2 193.53 328.4C193.329 328.6 193.127 328.7 192.825 328.7C192.523 328.7 192.322 328.6 192.12 328.4C191.919 328.2 191.818 328 191.818 327.7C191.818 327.4 191.919 327.2 192.12 327C192.322 326.9 192.624 326.7 192.825 326.7ZM187.286 318.4V322.3H196.753V318.4H187.286ZM187.286 322.6V325.4H193.732L196.552 322.6H187.286Z" fill="#7CFFFF"/>
<path d="M197.256 322.5H186.278" stroke="#1E1E1E" stroke-miterlimit="10"/>
<path d="M187.588 318.1H184.566" stroke="#7CFFFF" stroke-miterlimit="10"/>
<path d="M121.419 317C121.721 317 122.023 317.1 122.225 317.3C122.426 317.5 122.527 317.8 122.527 318.1C122.527 318.4 122.426 318.7 122.225 318.9C122.023 319.1 121.721 319.2 121.419 319.2C121.117 319.2 120.815 319.1 120.613 318.9C120.412 318.7 120.311 318.4 120.311 318.1C120.311 317.8 120.412 317.5 120.613 317.3C120.815 317.2 121.117 317 121.419 317ZM126.555 317C126.858 317 127.16 317.1 127.361 317.3C127.562 317.5 127.663 317.8 127.663 318.1C127.663 318.4 127.562 318.7 127.361 318.9C127.16 319.1 126.858 319.2 126.555 319.2C126.253 319.2 125.951 319.1 125.75 318.9C125.548 318.7 125.447 318.4 125.447 318.1C125.447 317.8 125.548 317.5 125.75 317.3C125.951 317.2 126.253 317 126.555 317ZM120.412 307.7V312H130.987V307.7H120.412ZM120.412 312.5V315.6H127.563L130.685 312.5H120.412Z" fill="#7CFFFF"/>
<path d="M131.49 312.3H119.203" stroke="#1E1E1E" stroke-miterlimit="10"/>
<path d="M120.613 307.4H117.29" stroke="#7CFFFF" stroke-miterlimit="10"/>
<path d="M14.4658 465.428L14.4658 481.428H27.3571V465.428H14.4658Z" stroke="#0098B6" stroke-miterlimit="10"/>
<path d="M104.791 469.785V481.485H120.905V469.785H104.791Z" stroke="#0098B6" stroke-miterlimit="10"/>
<path d="M0.661621 28.7C48.8032 11 100.772 1.30005 155.158 1.30005C206.623 1.30005 256.074 10 302 26" stroke="#0098B6" stroke-miterlimit="10"/>
<path d="M79.6225 49.1001H76.5004L75.6946 51.3999H74.6875L77.9104 42.8999H78.4139L81.6368 51.3999H80.529L79.6225 49.1001ZM76.8025 48.2H79.3204L78.4139 45.6001L78.1118 44.3L77.8097 45.6001L76.8025 48.2Z" fill="#0098B6"/>
<path d="M87.5781 43.8999H83.6502V51.3999H82.6431V43H88.5852V51.3999H87.5781V43.8999Z" fill="#0098B6"/>
<path d="M96.0387 43.8999H93.4202V51.3999H92.413V43.8999H89.7944V43H96.0387V43.8999V43.8999Z" fill="#0098B6"/>
<path d="M97.3481 43H101.981V43.8999H98.3553V46.6001H101.679V47.5H98.3553V50.5H101.981V51.3999H97.3481V43Z" fill="#0098B6"/>
<path d="M105.404 47.5H104.8V51.3999H103.793V43H104.8V46.8999L105.304 46.7L108.124 43H109.332L106.512 46.6001L106.009 47L106.613 47.5L109.735 51.3999H108.426L105.404 47.5Z" fill="#0098B6"/>
<path d="M115.175 49.1001H112.053L111.247 51.3999H110.24L113.463 42.8999H113.966L117.189 51.3999H116.081L115.175 49.1001ZM112.455 48.2H114.973L114.067 45.6001L113.765 44.3L113.463 45.6001L112.455 48.2Z" fill="#0098B6"/>
<path d="M118.196 43.1001C118.498 43.0001 118.801 43 119.203 43C119.606 43 119.908 43 120.211 43C120.613 43 120.916 43.0001 121.318 43.1001C121.721 43.2001 122.023 43.3 122.326 43.5C122.628 43.7 122.93 44 123.131 44.3C123.333 44.6 123.433 45.1001 123.433 45.6001C123.433 46.1001 123.333 46.4999 123.131 46.8999C122.93 47.2999 122.728 47.5 122.426 47.8C122.124 48 121.721 48.2 121.419 48.3C121.117 48.4 120.613 48.3999 120.211 48.3999C120.211 48.3999 120.11 48.3999 120.009 48.3999C119.908 48.3999 119.808 48.3999 119.707 48.3999C119.606 48.3999 119.506 48.3999 119.405 48.3999C119.304 48.3999 119.203 48.3999 119.203 48.3999V51.6001H118.196V43.1001V43.1001ZM120.311 43.8C120.11 43.8 119.908 43.8 119.707 43.8C119.506 43.8 119.405 43.7999 119.203 43.8999V47.3999C119.203 47.3999 119.304 47.3999 119.405 47.3999C119.506 47.3999 119.606 47.3999 119.707 47.3999C119.808 47.3999 119.908 47.3999 120.009 47.3999C120.11 47.3999 120.211 47.3999 120.211 47.3999C120.513 47.3999 120.714 47.4 121.016 47.3C121.318 47.2 121.52 47.2 121.721 47C121.923 46.9 122.124 46.6999 122.225 46.3999C122.326 46.0999 122.426 45.8 122.426 45.5C122.426 45.2 122.326 44.9 122.225 44.7C122.124 44.5 121.923 44.3 121.721 44.2C121.52 44.1 121.318 43.9999 121.016 43.8999C120.714 43.7999 120.613 43.8 120.311 43.8Z" fill="#0098B6"/>
<path d="M130.181 51.1001C129.979 51.3001 129.677 51.4 129.274 51.5C128.872 51.6 128.469 51.6001 128.066 51.6001C127.562 51.6001 127.059 51.5 126.656 51.3C126.253 51.1 125.85 50.9 125.447 50.5C125.145 50.1 124.843 49.7 124.642 49.2C124.44 48.7 124.339 48 124.339 47.2C124.339 46.4 124.44 45.7 124.642 45.2C124.843 44.7 125.145 44.1999 125.447 43.8999C125.749 43.5999 126.152 43.3001 126.656 43.1001C127.159 42.9001 127.562 42.8999 127.965 42.8999C128.469 42.8999 128.872 42.9 129.174 43C129.476 43.1 129.778 43.1 129.979 43.2L129.778 44.1001C129.375 43.9001 128.872 43.8 128.167 43.8C127.864 43.8 127.462 43.9 127.159 44C126.857 44.1 126.555 44.3001 126.253 44.6001C125.951 44.9001 125.749 45.2 125.649 45.7C125.447 46.1 125.447 46.7 125.447 47.3C125.447 47.9 125.548 48.4 125.649 48.8C125.749 49.2 125.951 49.5999 126.253 49.8999C126.555 50.1999 126.757 50.4 127.159 50.5C127.562 50.6 127.864 50.7 128.267 50.7C128.67 50.7 128.972 50.7001 129.174 50.6001C129.476 50.5001 129.677 50.4 129.879 50.3L130.181 51.1001Z" fill="#0098B6"/>
<path d="M133.303 47.5H132.699V51.3999H131.692V43H132.699V46.8999L133.203 46.7L136.023 43H137.231L134.411 46.6001L133.908 47L134.512 47.5L137.634 51.3999H136.325L133.303 47.5Z" fill="#0098B6"/>
<path d="M143.072 49.1001H139.95L139.144 51.3999H138.137L141.36 42.8999H141.864L145.087 51.3999H143.979L143.072 49.1001ZM140.353 48.2H142.871L141.964 45.6001L141.662 44.3L141.36 45.6001L140.353 48.2Z" fill="#0098B6"/>
<path d="M150.928 51.3999H149.921V47.7L148.713 48L146.598 51.3999H145.389L147.303 48.3999L148.008 47.8999C147.706 47.7999 147.403 47.7001 147.202 47.6001C147.001 47.5001 146.698 47.3001 146.598 47.1001C146.396 46.9001 146.296 46.6999 146.195 46.3999C146.094 46.0999 146.094 45.8 146.094 45.5C146.094 45 146.195 44.6 146.296 44.3C146.396 44 146.698 43.7 147.001 43.5C147.303 43.3 147.605 43.2001 148.008 43.1001C148.411 43.0001 148.813 43 149.216 43C149.518 43 149.821 43 150.123 43C150.425 43 150.727 43.1001 151.029 43.1001V51.3999H150.928ZM149.116 43.8C148.813 43.8 148.612 43.7999 148.31 43.8999C148.108 43.9999 147.806 44 147.706 44.2C147.504 44.3 147.403 44.5 147.202 44.7C147.101 44.9 147.001 45.2 147.001 45.5C147.001 45.8 147.101 46.1 147.202 46.3C147.303 46.5 147.504 46.7 147.605 46.8C147.806 46.9 148.008 47.0001 148.209 47.1001C148.411 47.2001 148.713 47.2 149.015 47.2H149.821V43.8999C149.72 43.8999 149.619 43.9 149.518 43.8C149.518 43.8 149.317 43.8 149.116 43.8Z" fill="#0098B6"/>
<path d="M161.302 47.6001H157.273V51.5H156.266V43.1001H157.273V46.8H161.302V43.1001H162.309V51.5H161.302V47.6001Z" fill="#0098B6"/>
<path d="M168.352 49.1001H165.23L164.424 51.3999H163.417L166.64 42.8999H167.143L170.366 51.3999H169.258L168.352 49.1001ZM165.633 48.2H168.151L167.244 45.6001L166.942 44.3L166.64 45.6001L165.633 48.2Z" fill="#0098B6"/>
<path d="M171.474 43H176.107V43.8999H172.481V46.3999C172.582 46.3999 172.784 46.4 172.985 46.3C173.186 46.3 173.388 46.3 173.589 46.3C173.992 46.3 174.395 46.2999 174.798 46.3999C175.201 46.4999 175.503 46.6 175.805 46.8C176.107 47 176.309 47.2001 176.51 47.6001C176.711 47.9001 176.711 48.3 176.711 48.8C176.711 49.3 176.611 49.7 176.409 50C176.208 50.3 176.006 50.5999 175.704 50.8999C175.402 51.0999 175.1 51.2999 174.697 51.3999C174.294 51.4999 173.891 51.6001 173.489 51.6001C173.388 51.6001 173.186 51.6001 172.985 51.6001C172.784 51.6001 172.582 51.6001 172.481 51.6001C172.28 51.6001 172.079 51.6 171.877 51.5C171.676 51.5 171.575 51.4999 171.374 51.3999V43H171.474ZM173.589 50.7C173.891 50.7 174.093 50.7001 174.294 50.6001C174.496 50.5001 174.697 50.4 174.899 50.3C175.1 50.2 175.201 50 175.301 49.8C175.402 49.6 175.402 49.3 175.402 49C175.402 48.6 175.301 48.3001 175.201 48.1001C175.1 47.9001 174.899 47.7001 174.697 47.6001C174.496 47.5001 174.294 47.4 173.992 47.3C173.69 47.2 173.489 47.2 173.186 47.2C173.086 47.2 172.985 47.2 172.884 47.2C172.784 47.2 172.683 47.2 172.582 47.2C172.481 47.2 172.381 47.2 172.28 47.2C172.179 47.2 172.179 47.2 172.079 47.2V50.5C172.179 50.5 172.179 50.5 172.28 50.5C172.381 50.5 172.481 50.5 172.582 50.5C172.683 50.5 172.784 50.5 172.884 50.5C173.388 50.7 173.489 50.7 173.589 50.7Z" fill="#0098B6"/>
<path d="M178.121 43H182.753V43.8999H179.128V46.6001H182.451V47.5H179.128V50.5H182.753V51.3999H178.121V43Z" fill="#0098B6"/>
<path d="M184.567 43.1001C184.87 43.0001 185.172 43 185.575 43C185.977 43 186.28 43 186.582 43C186.985 43 187.287 43.0001 187.69 43.1001C188.092 43.2001 188.395 43.3 188.697 43.5C188.999 43.7 189.301 44 189.502 44.3C189.704 44.6 189.805 45.1001 189.805 45.6001C189.805 46.1001 189.704 46.4999 189.502 46.8999C189.301 47.2999 189.1 47.5 188.797 47.8C188.495 48 188.092 48.2 187.79 48.3C187.488 48.4 186.985 48.3999 186.582 48.3999C186.582 48.3999 186.481 48.3999 186.38 48.3999C186.28 48.3999 186.179 48.3999 186.078 48.3999C185.977 48.3999 185.877 48.3999 185.776 48.3999C185.675 48.3999 185.575 48.3999 185.575 48.3999V51.6001H184.567V43.1001V43.1001ZM186.582 43.8C186.38 43.8 186.179 43.8 185.977 43.8C185.776 43.8 185.675 43.7999 185.474 43.8999V47.3999C185.474 47.3999 185.575 47.3999 185.675 47.3999C185.776 47.3999 185.877 47.3999 185.977 47.3999C186.078 47.3999 186.179 47.3999 186.28 47.3999C186.38 47.3999 186.481 47.3999 186.481 47.3999C186.783 47.3999 186.985 47.4 187.287 47.3C187.589 47.2 187.79 47.2 187.992 47C188.193 46.9 188.395 46.6999 188.495 46.3999C188.596 46.0999 188.697 45.8 188.697 45.5C188.697 45.2 188.596 44.9 188.495 44.7C188.395 44.5 188.193 44.3 187.992 44.2C187.79 44.1 187.589 43.9999 187.287 43.8999C186.985 43.7999 186.884 43.8 186.582 43.8Z" fill="#0098B6"/>
<path d="M191.315 43H195.948V43.8999H192.322V46.6001H195.646V47.5H192.322V50.5H195.948V51.3999H191.315V43Z" fill="#0098B6"/>
<path d="M201.084 43H202.091V46.8999L202.595 46.7L205.012 43H206.12L203.702 46.6001L203.199 47L203.803 47.5L206.523 51.3999H205.314L202.595 47.5H201.99V51.3999H200.983V47.3999L200.48 47.6001L197.76 51.5H196.552L199.271 47.7L199.875 47.2L199.271 46.8L196.753 43H197.962L200.379 46.8H200.882V43H201.084Z" fill="#0098B6"/>
<path d="M212.566 47.6001H208.537V51.5H207.53V43.1001H208.537V46.8H212.566V43.1001H213.573V51.5H212.566V47.6001Z" fill="#0098B6"/>
<path d="M219.717 49.1001H216.595L215.789 51.3999H214.782L218.005 42.8999H218.508L221.731 51.3999H220.623L219.717 49.1001ZM216.897 48.2H219.415L218.508 45.6001L218.206 44.3L217.904 45.6001L216.897 48.2Z" fill="#0098B6"/>
<path d="M227.573 51.3999H226.566V47.7L225.357 48L223.242 51.3999H222.034L223.947 48.3999L224.652 47.8999C224.35 47.7999 224.048 47.7001 223.847 47.6001C223.645 47.5001 223.343 47.3001 223.242 47.1001C223.041 46.9001 222.94 46.6999 222.839 46.3999C222.739 46.0999 222.739 45.8 222.739 45.5C222.739 45 222.839 44.6 222.94 44.3C223.041 44 223.343 43.7 223.645 43.5C223.947 43.3 224.249 43.2001 224.652 43.1001C225.055 43.0001 225.458 43 225.861 43C226.163 43 226.465 43 226.767 43C227.069 43 227.372 43.1001 227.674 43.1001V51.3999H227.573ZM225.659 43.8C225.357 43.8 225.156 43.7999 224.854 43.8999C224.652 43.9999 224.35 44 224.249 44.2C224.048 44.3 223.947 44.5 223.746 44.7C223.645 44.9 223.544 45.2 223.544 45.5C223.544 45.8 223.645 46.1 223.746 46.3C223.847 46.5 224.048 46.7 224.149 46.8C224.35 46.9 224.552 47.0001 224.753 47.1001C224.954 47.2001 225.257 47.2 225.559 47.2H226.364V43.8999C226.264 43.8999 226.163 43.9 226.062 43.8C226.062 43.8 225.861 43.8 225.659 43.8Z" fill="#0098B6"/>
<path d="M154.957 76.3999H301.598V843.1H1.87061V377.1" stroke="#0098B6" stroke-miterlimit="10"/>
<path d="M7.20808 334.4L12.8481 328.8L7.10736 323.1H0.661621L6.40236 328.8L0.661621 334.5H7.10736L7.20808 334.4Z" fill="#0098B6"/>
<path d="M14.355 489.433L14.355 830.633H289.306V489.433H14.355Z" stroke="#7CFFFF" stroke-miterlimit="10"/>
<defs>
<clipPath id="clip0_209_1574">
<rect width="15.2099" height="12.3333" fill="white" transform="matrix(1 0 0 -1 168.091 261.703)"/>
</clipPath>
<clipPath id="clip1_209_1574">
<rect width="15.2099" height="12.3333" fill="white" transform="matrix(1 0 0 -1 120.771 262.004)"/>
</clipPath>
<clipPath id="clip2_209_1574">
<rect width="15.2099" height="12.3333" fill="white" transform="matrix(1 0 0 -1 48.8242 129.876)"/>
</clipPath>
<clipPath id="clip3_209_1574">
<rect width="15.2099" height="12.3333" fill="white" transform="matrix(1 0 0 -1 244.232 299.022)"/>
</clipPath>
<clipPath id="clip4_209_1574">
<rect width="15.2099" height="12.3333" fill="white" transform="matrix(1 0 0 -1 244.232 366.865)"/>
</clipPath>
<clipPath id="clip5_209_1574">
<rect width="15.2099" height="12.3333" fill="white" transform="matrix(1 0 0 -1 244.232 396.865)"/>
</clipPath>
<clipPath id="clip6_209_1574">
<rect width="15.2099" height="12.3333" fill="white" transform="matrix(1 0 0 -1 244.232 443.976)"/>
</clipPath>
<clipPath id="clip7_209_1574">
<rect width="15.2099" height="12.3333" fill="white" transform="matrix(1 0 0 -1 244.232 251.922)"/>
</clipPath>
<clipPath id="clip8_209_1574">
<rect width="15.2099" height="12.3333" fill="white" transform="matrix(1 0 0 -1 144.937 450.418)"/>
</clipPath>
<clipPath id="clip9_209_1574">
<rect width="15.2099" height="12.3333" fill="white" transform="matrix(1 0 0 -1 111.252 450.418)"/>
</clipPath>
<clipPath id="clip10_209_1574">
<rect width="15.2099" height="12.3333" fill="white" transform="matrix(1 0 0 -1 178.163 450.418)"/>
</clipPath>
<clipPath id="clip11_209_1574">
<rect width="15.2099" height="12.3333" fill="white" transform="matrix(1 0 0 -1 177.386 417.087)"/>
</clipPath>
<clipPath id="clip12_209_1574">
<rect width="15.2099" height="12.3333" fill="white" transform="matrix(1 0 0 -1 98.4116 129.126)"/>
</clipPath>
<clipPath id="clip13_209_1574">
<rect width="15.2099" height="12.3333" fill="white" transform="matrix(1 0 0 -1 60.4019 231.83)"/>
</clipPath>
<clipPath id="clip14_209_1574">
<rect width="15.2099" height="12.3333" fill="white" transform="matrix(1 0 0 -1 68.0239 266.39)"/>
</clipPath>
<clipPath id="clip15_209_1574">
<rect width="15.2099" height="12.3333" fill="white" transform="matrix(1 0 0 -1 69.2256 301.628)"/>
</clipPath>
<clipPath id="clip16_209_1574">
<rect width="15.2099" height="12.3333" fill="white" transform="matrix(1 0 0 -1 42.6045 301.628)"/>
</clipPath>
<clipPath id="clip17_209_1574">
<rect width="15.2099" height="12.3333" fill="white" transform="matrix(1 0 0 -1 17.6821 269.746)"/>
</clipPath>
<clipPath id="clip18_209_1574">
<rect width="15.2099" height="12.3333" fill="white" transform="matrix(1 0 0 -1 35.4277 367.586)"/>
</clipPath>
<clipPath id="clip19_209_1574">
<rect width="15.2099" height="12.3333" fill="white" transform="matrix(1 0 0 -1 65.3765 403.098)"/>
</clipPath>
<clipPath id="clip20_209_1574">
<rect width="15.2099" height="12.3333" fill="white" transform="matrix(1 0 0 -1 27.6602 444.257)"/>
</clipPath>
<clipPath id="clip21_209_1574">
<rect width="15.2099" height="12.3333" fill="white" transform="matrix(1 0 0 -1 144.431 672.415)"/>
</clipPath>
<clipPath id="clip22_209_1574">
<rect width="15.2099" height="12.3333" fill="white" transform="matrix(1 0 0 -1 68.5439 444.257)"/>
</clipPath>
</defs>
</svg>
