<svg width="18" height="16" viewBox="0 0 18 16" fill="none" xmlns="http://www.w3.org/2000/svg">
<path d="M7.06 9.55994L6.70001 0.999939H5.70001C5.70001 3.18994 5.70003 8.99994 5.59003 9.77994C5.52003 10.2599 5.35999 10.84 4.98999 10.84C4.61999 10.84 4.60001 10.35 4.57001 9.94995C4.50001 9.03995 4.04003 1.04995 4.03003 0.949951H3.03003C3.03003 0.949951 2.58001 8.94995 2.51001 9.94995C2.51001 10.28 2.38998 10.8199 1.97998 10.8199C1.77998 10.8199 1.47003 10.52 1.41003 9.95996C1.35003 9.39996 1.29002 3.27996 1.27002 0.959961H0.27002L0 9.52994C0.00195774 10.2937 0.252965 11.036 0.714966 11.6442C1.17697 12.2523 1.82474 12.6933 2.56 12.9V15.68H4.44V12.92C5.18312 12.7218 5.84116 12.2863 6.31409 11.6798C6.78701 11.0733 7.04893 10.3289 7.06 9.55994Z" fill="#7CFFFF"/>
<path d="M17.4501 9.72995C17.4001 8.85995 16.9301 1.19995 13.5601 1.19995C10.1901 1.19995 9.71004 8.85995 9.67004 9.75995C9.67857 10.5956 9.95671 11.4062 10.463 12.071C10.9693 12.7359 11.6767 13.2195 12.48 13.45V15.74H14.3801V13.5399C15.2506 13.3522 16.0304 12.8715 16.5891 12.1781C17.1479 11.4846 17.4518 10.6205 17.4501 9.72995Z" fill="#7CFFFF"/>
</svg>
