<svg width="18" height="15" viewBox="0 0 18 15" fill="none" xmlns="http://www.w3.org/2000/svg">
<path d="M11.95 4.46204V2.99203C11.9045 2.18339 11.5512 1.42282 10.9626 0.866425C10.3741 0.310029 9.5949 0 8.78497 0C7.97505 0 7.19586 0.310029 6.6073 0.866425C6.01874 1.42282 5.66547 2.18339 5.62 2.99203V4.49203L8.79999 7.19202L11.95 4.46204Z" fill="#7CFFFF"/>
<path d="M15.51 13.5819L14.42 7.47192H11.91L8.77997 10.1719L5.62 7.47192H3.13995L2.06 13.5719H0V14.5019H17.51V13.5719L15.51 13.5819ZM4.33997 13.5819L5 9.86194L6.65997 13.5819H4.33997ZM11.14 13.5819L12.58 9.80194L13.26 13.5819H11.14Z" fill="#7CFFFF"/>
</svg>
