<svg width="18" height="15" viewBox="0 0 18 15" fill="none" xmlns="http://www.w3.org/2000/svg">
<path d="M4.96002 10.27H13.45L16.77 6.94995H4.96002V10.27Z" fill="#7CFFFF"/>
<path d="M17.48 0.93H4.96V0H0V0.93H4.96V5.95H17.48V0.93Z" fill="#7CFFFF"/>
<path d="M13.2 12.4301C12.9835 12.2152 12.6993 12.0819 12.3956 12.0529C12.092 12.0238 11.7876 12.1009 11.5344 12.2709C11.2811 12.4409 11.0945 12.6934 11.0063 12.9854C10.9182 13.2774 10.9339 13.591 11.0508 13.8727C11.1677 14.1545 11.3785 14.3871 11.6475 14.5309C11.9165 14.6747 12.2271 14.721 12.5263 14.6618C12.8255 14.6025 13.095 14.4415 13.2889 14.206C13.4829 13.9705 13.5893 13.6751 13.59 13.3701C13.5905 13.1954 13.5562 13.0224 13.4893 12.861C13.4223 12.6996 13.324 12.5532 13.2 12.4301Z" fill="#7CFFFF"/>
<path d="M6.12998 12.0401C5.95541 12.0387 5.7823 12.0723 5.62088 12.1388C5.45946 12.2053 5.31301 12.3033 5.19003 12.4272C5.06706 12.5511 4.97008 12.6984 4.90482 12.8603C4.83955 13.0222 4.8073 13.1955 4.80997 13.3701C4.809 13.5425 4.84205 13.7134 4.90726 13.873C4.97247 14.0326 5.06855 14.1777 5.18997 14.3001C5.34388 14.4518 5.53266 14.5634 5.73978 14.6251C5.94689 14.6868 6.166 14.6967 6.37784 14.6539C6.58967 14.6111 6.78778 14.517 6.95474 14.3798C7.1217 14.2426 7.25243 14.0665 7.33542 13.8669C7.41841 13.6674 7.4511 13.4505 7.4307 13.2354C7.41029 13.0202 7.33738 12.8134 7.21835 12.633C7.09933 12.4527 6.93785 12.3042 6.74808 12.2008C6.5583 12.0975 6.34607 12.0423 6.12998 12.0401Z" fill="#7CFFFF"/>
</svg>
