<svg width="886" height="271" viewBox="0 0 886 271" fill="none" xmlns="http://www.w3.org/2000/svg">
<path d="M574.6 7.89999V221.8H315.1V7.89999H574.6ZM578 4.5H311.6V225.3H578V4.5Z" fill="#0098B6"/>
<path d="M308 87.2V0.799988H394.4L308 87.2Z" fill="#1E1E1E"/>
<path d="M387.2 12.8V80.1H320L387.2 12.8ZM390.7 4.5L311.6 83.6H390.7V4.5Z" fill="#0098B6"/>
<path d="M1.70001 268.6H884.2V137.9C853.5 192.4 788.9 192.4 758.1 137.9C727.4 192.4 662.8 192.4 632 137.9C601.3 192.4 536.7 192.4 505.9 137.9C475.2 192.4 410.6 192.4 379.8 137.9C349.1 192.4 284.5 192.4 253.7 137.9C223 192.4 158.4 192.4 127.6 137.9C96.9 192.4 32.3 192.4 1.5 137.9L1.70001 268.6Z" fill="#1E1E1E"/>
<path fill-rule="evenodd" clip-rule="evenodd" d="M127.698 134.371L129.21 137.047C144.345 163.829 167.658 177.041 190.788 177.041C213.917 177.041 237.204 163.829 252.289 137.049L253.798 134.371L255.31 137.047C270.445 163.829 293.758 177.041 316.888 177.041C340.017 177.041 363.304 163.829 378.389 137.049L379.898 134.371L381.41 137.047C396.545 163.829 419.858 177.041 442.988 177.041C466.117 177.041 489.404 163.829 504.489 137.049L505.998 134.371L507.51 137.047C522.645 163.829 545.958 177.041 569.087 177.041C592.217 177.041 615.504 163.829 630.589 137.049L632.098 134.371L633.609 137.047C648.745 163.829 672.058 177.041 695.187 177.041C718.317 177.041 741.604 163.829 756.689 137.049L758.198 134.371L759.709 137.047C774.845 163.829 798.158 177.041 821.287 177.041C844.417 177.041 867.704 163.829 882.789 137.049L885.811 138.751C870.196 166.471 845.833 180.509 821.287 180.509C797.518 180.509 773.897 167.345 758.202 141.341C742.554 167.345 718.956 180.509 695.187 180.509C671.418 180.509 647.797 167.345 632.102 141.341C616.454 167.345 592.857 180.509 569.087 180.509C545.318 180.509 521.698 167.345 506.002 141.341C490.354 167.345 466.757 180.509 442.988 180.509C419.218 180.509 395.598 167.345 379.902 141.341C364.254 167.345 340.657 180.509 316.888 180.509C293.118 180.509 269.498 167.345 253.802 141.341C238.154 167.345 214.557 180.509 190.788 180.509C167.018 180.509 143.398 167.345 127.702 141.341C112.054 167.345 88.4565 180.509 64.6875 180.509C40.1422 180.509 15.7551 166.471 0.0904541 138.753L3.10949 137.047C18.2449 163.829 41.5578 177.041 64.6875 177.041C87.8167 177.041 111.104 163.829 126.189 137.049L127.698 134.371Z" fill="#0098B6"/>
<path fill-rule="evenodd" clip-rule="evenodd" d="M190.901 224.169L192.411 226.849C207.497 253.63 230.785 266.866 253.913 266.879C277.042 266.891 300.354 253.679 315.49 226.848L317.001 224.169L318.511 226.849C333.596 253.629 356.883 266.841 380.013 266.841C403.142 266.841 426.455 253.629 441.59 226.847L443.102 224.172L444.611 226.849C459.696 253.629 482.983 266.841 506.112 266.841C529.242 266.841 552.555 253.629 567.69 226.847L569.202 224.172L570.711 226.849C585.796 253.629 609.083 266.841 632.213 266.841C655.342 266.841 678.655 253.629 693.791 226.847L695.302 224.172L696.811 226.849C711.896 253.629 735.183 266.841 758.313 266.841C781.442 266.841 804.755 253.629 819.891 226.847L822.91 228.553C807.245 256.271 782.858 270.309 758.313 270.309C734.544 270.309 710.946 257.145 695.298 231.141C679.603 257.145 655.982 270.309 632.213 270.309C608.443 270.309 584.846 257.145 569.198 231.141C553.502 257.145 529.882 270.309 506.112 270.309C482.343 270.309 458.746 257.145 443.098 231.141C427.402 257.145 403.782 270.309 380.013 270.309C356.244 270.309 332.647 257.146 316.999 231.144C301.304 257.194 277.682 270.359 253.912 270.346C230.143 270.334 206.547 257.147 190.899 231.144C175.205 257.195 151.584 270.384 127.813 270.384C103.265 270.384 78.9025 256.319 63.2886 228.55L66.3114 226.85C81.3975 253.681 104.685 266.916 127.813 266.916C150.941 266.916 174.254 253.68 189.39 226.848L190.901 224.169Z" fill="#0098B6"/>
</svg>
