<svg width="21" height="21" viewBox="0 0 21 21" fill="none" xmlns="http://www.w3.org/2000/svg">
<path d="M20.3062 10.7979C20.3062 5.29785 15.8062 0.797852 10.3062 0.797852C4.8062 0.797852 0.306198 5.29785 0.306198 10.7979C0.306198 16.2979 4.8062 20.7979 10.3062 20.7979C15.8062 20.7979 20.3062 16.2979 20.3062 10.7979Z" fill="#0098B6"/>
<path d="M13.8062 7.29785C14.7062 8.09785 15.2062 9.29756 15.2062 10.4976C15.2062 12.5976 13.7062 14.3975 11.7062 14.8975L12.1062 15.2979H15.2062C16.3062 14.1979 16.9062 12.7978 16.9062 11.1978C16.9062 8.59775 15.1062 6.29756 12.6062 5.49756L10.4062 12.2979L8.20621 5.49756C5.70621 6.29756 3.9062 8.59775 3.9062 11.1978C3.9062 12.7978 4.6062 14.2979 5.6062 15.2979H8.70621L9.1062 14.8975C7.1062 14.3975 5.50621 12.5976 5.50621 10.4976C5.50621 9.19756 6.0062 8.09785 6.9062 7.29785C7.0062 7.19785 7.2062 7.19775 7.3062 7.19775C7.5062 7.19775 7.60621 7.29766 7.70621 7.59766L10.1062 15.0977C10.2062 15.0977 10.3062 15.0977 10.3062 15.0977C10.4062 15.0977 10.5062 15.0977 10.5062 15.0977L12.9062 7.59766C13.0062 7.39766 13.1062 7.29775 13.3062 7.19775C13.5062 7.09775 13.6062 7.19785 13.8062 7.29785Z" fill="#1E1E1E"/>
</svg>
