<svg width="774" height="150" viewBox="0 0 774 150" fill="none" xmlns="http://www.w3.org/2000/svg">
<path d="M761.6 78.2C763.4 78.2 764.9 78.4 766 78.9C767.1 79.4 768.1 80 768.7 80.8C769.4 81.6 769.8 82.5 770.1 83.5C770.3 84.5 770.5 85.5 770.5 86.6V94.4H768.4C768.4 90.2 767.3 87.2 765 85.3C762.7 83.4 759.5 82.4 755.3 82.4H735.9V109.6H764.1V113.8H735.9V143H754.2C758.9 143 762.7 142.1 765.4 140.4C768.1 138.7 770.3 135.7 771.9 131.5L774 132L770.3 141.9C769.7 143.5 768.8 144.8 767.5 145.7C766.2 146.6 764.5 147.1 762.4 147.1H726.4V90.7C726.4 87.6 726 85 725.1 83.1C724.2 81.2 722.2 80.2 719.1 80.2H717V78.2H761.6Z" fill="white"/>
<path d="M711 129.5C711 132.4 710.5 135.1 709.5 137.4C708.5 139.8 707 141.8 705.2 143.5C703.3 145.2 701 146.5 698.4 147.4C695.7 148.3 692.7 148.8 689.4 148.8C686.5 148.8 683.7 148.5 680.9 147.9C678.1 147.3 675.5 146.5 673.3 145.3C671 144.2 669.2 142.9 667.8 141.3C666.4 139.7 665.7 138 665.7 136V124.8H667.8C669 131.8 671.3 136.9 674.7 139.9C678.1 143 682.8 144.5 688.7 144.5C690.5 144.5 692.2 144.3 693.8 143.8C695.4 143.3 696.9 142.7 698.1 141.8C699.3 140.9 700.4 139.8 701.1 138.5C701.9 137.2 702.2 135.6 702.2 133.9C702.2 130.8 701.2 128.2 699.3 126.1C697.4 123.9 694.5 121.8 690.7 119.5L677.8 111.9C673.3 109.3 670.2 106.6 668.3 103.9C666.4 101.2 665.5 97.9 665.5 94C665.5 91.3 666 88.9 667 86.7C668 84.5 669.4 82.7 671.1 81.1C672.9 79.5 675 78.3 677.5 77.5C680 76.7 682.7 76.3 685.8 76.3C688.4 76.3 691 76.6 693.7 77.1C696.4 77.7 698.8 78.5 701 79.6C703.2 80.7 704.9 82 706.3 83.6C707.7 85.2 708.4 86.9 708.4 88.9V100.1H706.3C705.1 93.1 702.9 88.1 699.6 85.1C696.3 82.1 691.7 80.6 685.8 80.6C684.3 80.6 682.8 80.8 681.3 81.3C679.8 81.8 678.6 82.5 677.5 83.4C676.4 84.3 675.5 85.4 674.8 86.7C674.1 88 673.8 89.5 673.8 91.1C673.8 92.6 674 94 674.5 95.2C675 96.4 675.7 97.5 676.7 98.5C677.7 99.5 678.9 100.6 680.4 101.6C681.9 102.6 683.5 103.7 685.4 104.8L698.3 112.4C700.5 113.7 702.5 115 704.1 116.2C705.7 117.4 707.1 118.7 708.1 120.1C709.1 121.5 709.9 122.9 710.4 124.4C710.7 125.9 711 127.6 711 129.5Z" fill="white"/>
<path d="M598.4 90.7C598.4 87.6 598 85 597.1 83.1C596.2 81.2 594.2 80.2 591.1 80.2H589V78.2H598.4C600.2 78.2 601.7 78.4 602.9 78.7C604.1 79 605.1 79.6 605.8 80.6C606.5 81.5 607 82.8 607.3 84.5C607.6 86.1 607.7 88.2 607.7 90.8V120.6C607.7 124.3 608 127.6 608.6 130.5C609.2 133.4 610.3 135.8 611.7 137.9C613.2 139.9 615.1 141.5 617.4 142.5C619.7 143.6 622.6 144.1 626.1 144.1C630.1 144.1 633.4 143.6 636.1 142.5C638.8 141.5 641 139.8 642.7 137.6C644.4 135.4 645.6 132.6 646.3 129.3C647 126 647.3 122 647.3 117.4V78.2H651.5V117.4C651.5 122.5 651.1 127 650.4 130.8C649.6 134.7 648.3 137.9 646.3 140.5C644.3 143.1 641.6 145 638.2 146.3C634.8 147.6 630.4 148.2 625 148.2C619.9 148.2 615.7 147.6 612.3 146.3C608.9 145 606.2 143.1 604.1 140.5C602 137.9 600.6 134.7 599.7 130.8C598.8 126.9 598.4 122.5 598.4 117.4V90.7Z" fill="white"/>
<path d="M521.4 112.6C521.4 107.5 522.1 102.8 523.6 98.3C525.1 93.8 527.3 90 530.1 86.7C532.9 83.4 536.3 80.8 540.3 78.9C544.3 77 548.8 76.1 553.7 76.1C558.6 76.1 563.1 77 567.1 78.9C571.1 80.8 574.5 83.4 577.3 86.7C580.1 90 582.3 93.9 583.8 98.3C585.3 102.8 586 107.5 586 112.6C586 117.8 585.2 122.5 583.8 127C582.3 131.4 580.1 135.3 577.3 138.6C574.5 141.9 571.1 144.5 567.1 146.4C563.1 148.3 558.6 149.2 553.7 149.2C548.8 149.2 544.3 148.3 540.3 146.4C536.3 144.5 532.9 141.9 530.1 138.6C527.3 135.3 525.1 131.4 523.6 127C522.1 122.6 521.4 117.8 521.4 112.6ZM575.7 112.6C575.7 107.7 575.2 103.2 574.2 99.2C573.2 95.2 571.7 91.8 569.9 89C568 86.2 565.7 84 563 82.5C560.3 81 557.2 80.3 553.8 80.3C550.4 80.3 547.3 81 544.6 82.5C541.9 84 539.6 86.2 537.7 89C535.8 91.8 534.4 95.2 533.4 99.2C532.4 103.2 531.9 107.7 531.9 112.6C531.9 117.5 532.4 122 533.4 126C534.4 130 535.9 133.4 537.7 136.2C539.6 139 541.9 141.2 544.6 142.7C547.3 144.2 550.4 144.9 553.8 144.9C557.2 144.9 560.3 144.2 563 142.7C565.7 141.2 568 139 569.9 136.2C571.8 133.4 573.2 130 574.2 126C575.2 122 575.7 117.6 575.7 112.6Z" fill="white"/>
<path d="M506.8 134.6C506.8 137.7 507.2 140.3 508.1 142.2C509 144.1 511 145.1 514.1 145.1H516.2V147.2H506.8C505 147.2 503.5 147 502.3 146.7C501.1 146.4 500.1 145.8 499.4 144.8C498.7 143.9 498.2 142.6 497.9 141C497.6 139.4 497.5 137.3 497.5 134.6V113.7H466.2V147.1H456.8V90.7C456.8 87.6 456.4 85 455.5 83.1C454.6 81.2 452.6 80.2 449.5 80.2H447.4V78.2H456.8C458.6 78.2 460.1 78.4 461.3 78.7C462.5 79 463.5 79.6 464.2 80.6C464.9 81.5 465.4 82.8 465.7 84.5C466 86.1 466.1 88.2 466.1 90.8V109.6H497.4V78.2H506.8V134.6Z" fill="white"/>
<path d="M436.4 118.4L375.6 67L314.9 118.4V147.2L375.7 95.9L436.4 147.2V118.4Z" fill="#003786"/>
<path d="M436.4 89.7L375.6 38.4L314.9 89.7V118.5L375.7 67.2L436.4 118.5V89.7Z" fill="#0098B6"/>
<path d="M436.4 51.3L375.6 0L314.9 51.4V80.2L375.7 28.8L436.4 80.1V51.3Z" fill="#7CFFFF"/>
<path d="M266.5 115H259.2V146.9H249.8V90.3C249.8 87.2 249.4 84.6 248.5 82.7C247.6 80.8 245.6 79.8 242.5 79.8H240.4V77.7H267.6C269.8 77.7 272.5 77.9 275.5 78.3C278.5 78.7 281.4 79.5 284.1 80.9C286.8 82.2 289.1 84.1 291 86.6C292.9 89.1 293.8 92.4 293.8 96.6C293.8 99.6 293.3 102.2 292.2 104.2C291.2 106.3 289.8 108 288.2 109.4C286.6 110.8 284.7 111.8 282.8 112.6C280.8 113.4 278.9 114 277.1 114.4L288.1 132.7C289.4 134.9 290.7 136.8 291.8 138.3C293 139.8 294.1 141 295.2 141.9C296.3 142.8 297.4 143.5 298.6 143.9C299.7 144.3 300.9 144.6 302.3 144.7V146.8C301.7 147.1 300.9 147.3 299.7 147.5C298.5 147.7 297.3 147.8 296 147.8C294.2 147.8 292.5 147.6 290.9 147.1C289.3 146.6 287.8 145.8 286.3 144.6C284.8 143.4 283.4 141.8 281.9 139.9C280.4 137.9 278.8 135.5 277.1 132.7L266.5 115ZM267.1 111.4C268.6 111.4 270.2 111.1 272.1 110.6C273.9 110 275.7 109.2 277.4 108C279.1 106.8 280.5 105.3 281.6 103.5C282.8 101.7 283.3 99.4 283.3 96.7C283.3 94 282.7 91.6 281.6 89.7C280.4 87.7 279 86.2 277.4 85C275.7 83.8 274 82.9 272.1 82.4C270.2 81.8 268.6 81.6 267.1 81.6C265.8 81.6 264.4 81.7 263 81.9C261.6 82.1 260.3 82.4 259.3 82.6V110.4C260.3 110.7 261.6 110.9 263 111.1C264.3 111.3 265.7 111.4 267.1 111.4Z" fill="white"/>
<path d="M216.7 77.8C218.5 77.8 220 78 221.2 78.5C222.4 79 223.3 79.6 223.9 80.4C224.6 81.2 225 82.1 225.3 83.1C225.5 84.1 225.7 85.1 225.7 86.2V94.1H223.6C223.6 89.9 222.5 86.9 220.2 84.9C217.9 83 214.7 82 210.5 82H191V109.2H219.3V113.4H191V142.7H209.3C214 142.7 217.8 141.8 220.6 140.1C223.4 138.4 225.5 135.4 227.1 131.2L229.2 131.7L225.5 141.7C224.9 143.3 224 144.6 222.7 145.5C221.4 146.4 219.7 146.9 217.6 146.9H181.5V90.3C181.5 87.2 181.1 84.6 180.2 82.7C179.3 80.8 177.3 79.8 174.2 79.8H172.1V77.7H216.7V77.8Z" fill="white"/>
<path d="M136.8 132.3C138.5 128.2 140 124.9 141.1 122.3C142.3 119.7 143.2 117.5 143.9 115.8C144.6 114.1 145.2 112.6 145.7 111.4C146.2 110.2 146.7 109 147.2 107.9C147.7 106.7 148.2 105.5 148.8 104.1C149.4 102.7 150.1 100.9 151.1 98.7C152 96.5 153.2 93.7 154.6 90.4C156 87.1 157.7 82.9 159.8 77.9H164.8L134.7 148.1H132.8L108.5 90.2C107.7 88.2 106.9 86.6 106.1 85.2C105.4 83.8 104.5 82.7 103.6 81.9C102.7 81.1 101.7 80.4 100.7 80C99.7 79.6 98.4 79.3 96.9 79.2V77.1C97.2 77.1 97.7 77.1 98.5 77C99.3 76.9 99.9 76.9 100.4 76.9C101.7 76.9 103.1 77 104.7 77.3C106.3 77.6 107.9 78.2 109.6 79.1C111.2 80 112.8 81.3 114.4 83.1C116 84.9 117.4 87.2 118.6 90.2L136.8 132.3Z" fill="white"/>
<path d="M76.4 77.8H85.8V134.4C85.8 137.5 86.2 140.1 87.1 142C88 143.9 90 144.9 93.1 144.9H95.2V147H85.8C84 147 82.5 146.8 81.2 146.5C80 146.2 79 145.6 78.3 144.6C77.6 143.7 77.1 142.4 76.8 140.8C76.5 139.2 76.4 137.1 76.4 134.4V77.8Z" fill="white"/>
<path d="M26.1 115H18.8V146.9H9.40002V90.3C9.40002 87.2 8.99998 84.6 8.09998 82.7C7.19998 80.8 5.19998 79.8 2.09998 79.8H0V77.7H27.2C29.4 77.7 32.1 77.9 35.1 78.3C38.1 78.7 41 79.5 43.7 80.9C46.4 82.2 48.7 84.1 50.6 86.6C52.5 89.1 53.4 92.4 53.4 96.6C53.4 99.6 52.9 102.2 51.8 104.2C50.8 106.3 49.4 108 47.8 109.4C46.2 110.8 44.3 111.8 42.4 112.6C40.4 113.4 38.5 114 36.7 114.4L47.7 132.7C49 134.9 50.3 136.8 51.4 138.3C52.6 139.8 53.7 141 54.8 141.9C55.9 142.8 57 143.5 58.2 143.9C59.3 144.3 60.5 144.6 61.9 144.7V146.8C61.3 147.1 60.5 147.3 59.3 147.5C58.1 147.7 56.9 147.8 55.6 147.8C53.8 147.8 52.1 147.6 50.5 147.1C48.9 146.6 47.4 145.8 45.9 144.6C44.4 143.4 42.9 141.8 41.4 139.9C39.9 137.9 38.3 135.5 36.6 132.7L26.1 115ZM26.7 111.4C28.2 111.4 29.8 111.1 31.7 110.6C33.5 110 35.3 109.2 37 108C38.7 106.8 40.1 105.3 41.2 103.5C42.4 101.7 42.9 99.4 42.9 96.7C42.9 94 42.3 91.6 41.2 89.7C40 87.7 38.6 86.2 37 85C35.3 83.8 33.6 82.9 31.7 82.4C29.8 81.8 28.2 81.6 26.7 81.6C25.4 81.6 24 81.7 22.6 81.9C21.2 82.1 19.9 82.4 18.9 82.6V110.4C19.9 110.7 21.2 110.9 22.6 111.1C23.9 111.3 25.3 111.4 26.7 111.4Z" fill="white"/>
</svg>
