<svg width="55" height="58" viewBox="0 0 55 58" fill="none" xmlns="http://www.w3.org/2000/svg">
<path fill-rule="evenodd" clip-rule="evenodd" d="M0 0.0283203V57.0283H54.4V0.0283203H0ZM40.8 31.6284C42 32.9284 43.4 34.1283 44.5 35.5283C45 36.1283 45.5 36.8283 45.8 37.5283C46.3 38.5283 45.8 39.728 45 39.728H39.5C38.1 39.828 37 39.228 36 38.228C35.2 37.428 34.5 36.528 33.8 35.728C33.5 35.428 33.2001 35.0281 32.8 34.8281C32.1 34.3281 31.4 34.4281 31 35.3281C30.6 36.1281 30.5 37.1283 30.4 38.0283C30.3 39.4283 30 39.7281 28.7 39.8281C25.9 39.9281 23.3 39.5283 20.8 38.0283C18.6 36.7283 17 34.9281 15.5 32.8281C12.7 28.8281 10.5 24.4281 8.5 19.8281C8.1 18.8281 8.4 18.228 9.5 18.228C11.3 18.228 13.1 18.228 14.9 18.228C15.6 18.228 16.1 18.6282 16.4 19.4282C17.4 21.9282 18.6 24.3283 20 26.5283C20.4 27.1283 20.8 27.7284 21.4 28.1284C22 28.6284 22.5 28.428 22.8 27.728C23 27.228 23.1 26.728 23.1 26.228C23.2 24.528 23.3 22.7283 23 21.0283C22.8 19.9283 22.3 19.2283 21.2 19.0283C20.7 18.9283 20.8 18.7282 21 18.4282C21.4 17.9282 21.9 17.5283 22.7 17.5283H28.9C29.9 17.7283 30.1 18.228 30.2 19.228V26.4282C30.2 26.8282 30.4 28.028 31.1 28.228C31.6 28.428 32 27.9284 32.3 27.6284C33.8 25.9284 34.8 24.0283 35.8 22.0283C36.2001 21.1283 36.6 20.2281 36.9 19.3281C37.2 18.6281 37.6 18.3281 38.3 18.3281H44.3C44.5 18.3281 44.7001 18.3281 44.8 18.3281C45.8 18.5281 46.1 18.9283 45.8 20.0283C45.3 21.6283 44.4 23.0281 43.4 24.3281C42.4 25.7281 41.3 27.1284 40.3 28.6284C39.6 29.7284 39.7001 30.4284 40.8 31.6284Z" fill="#0098B6"/>
</svg>
